<svg xmlns="http://www.w3.org/2000/svg" xmlns:xlink="http://www.w3.org/1999/xlink" width="600.67" height="488" viewBox="0 0 600.67 488">
  <defs>
    <clipPath id="clip-about-us-img">
      <rect width="600.67" height="488"/>
    </clipPath>
  </defs>
  <g id="about-us-img" clip-path="url(#clip-about-us-img)">
    <rect width="600.67" height="488" fill="rgba(255,255,255,0)"/>
    <g id="Group_416" data-name="Group 416" transform="translate(-558.123 -196.258)">
      <circle id="Ellipse_4" data-name="Ellipse 4" cx="122.044" cy="122.044" r="122.044" transform="translate(899.035 199.758)" fill="#e5f1ff"/>
      <circle id="Ellipse_5" data-name="Ellipse 5" cx="71.332" cy="71.332" r="71.332" transform="translate(605.745 579.083) rotate(-45)" fill="#e5f1ff"/>
      <g id="Group_415" data-name="Group 415" transform="translate(574.123 237.106)">
        <path id="Path_778" data-name="Path 778" d="M685.982,228.368a65.212,65.212,0,1,0,65.212,65.213A65.213,65.213,0,0,0,685.982,228.368Zm0,106.906a41.693,41.693,0,1,1,41.693-41.693A41.694,41.694,0,0,1,685.982,335.274Z" transform="translate(-554.434 -225.03)" fill="#a9ccea"/>
        <path id="Path_779" data-name="Path 779" d="M900.479,528.847A7.483,7.483,0,0,1,893,536.33H703.774a7.483,7.483,0,1,1,0-14.966h67.171l9.266-17.1h36.347l9.265,17.1H893A7.483,7.483,0,0,1,900.479,528.847Z" transform="translate(-522.557 -108.578)" fill="#0f3157"/>
        <rect id="Rectangle_142" data-name="Rectangle 142" width="31.003" height="9.087" transform="translate(258.765 380.18)" fill="#fecb00"/>
        <rect id="Rectangle_143" data-name="Rectangle 143" width="31.003" height="9.087" transform="translate(258.765 365.213)" fill="#fecb00"/>
        <path id="Path_780" data-name="Path 780" d="M960.105,489.039a48.447,48.447,0,1,1,26.757-25.165" transform="translate(-438.996 -154.577)" fill="none" stroke="#fecb00" stroke-linecap="round" stroke-linejoin="round" stroke-width="1.128" stroke-dasharray="0 5.638"/>
        <path id="Path_781" data-name="Path 781" d="M887.749,287.595h-7.74a63.667,63.667,0,0,0-7.934-19.157l5.472-5.472a6.042,6.042,0,0,0,0-8.544l-12.157-12.158a6.042,6.042,0,0,0-8.544,0l-5.472,5.471a63.7,63.7,0,0,0-19.157-7.932v-7.74a6.041,6.041,0,0,0-6.041-6.041H808.98a6.04,6.04,0,0,0-6.041,6.041v7.74a63.694,63.694,0,0,0-19.159,7.932l-5.472-5.471a6.04,6.04,0,0,0-8.543,0l-12.159,12.158a6.042,6.042,0,0,0,0,8.544l5.472,5.472a63.7,63.7,0,0,0-7.934,19.157h-7.74a6.041,6.041,0,0,0-6.041,6.041v17.195a6.042,6.042,0,0,0,6.041,6.043h7.74a63.737,63.737,0,0,0,7.932,19.157l-5.471,5.472a6.04,6.04,0,0,0,0,8.543L769.766,362.2a6.04,6.04,0,0,0,8.543,0l5.472-5.471a63.731,63.731,0,0,0,19.159,7.932v7.74a6.04,6.04,0,0,0,6.041,6.041h17.195a6.041,6.041,0,0,0,6.041-6.041v-7.74a63.738,63.738,0,0,0,19.157-7.932l5.472,5.471a6.042,6.042,0,0,0,8.544,0l12.157-12.159a6.04,6.04,0,0,0,0-8.543l-5.471-5.472a63.7,63.7,0,0,0,7.932-19.157h7.74a6.042,6.042,0,0,0,6.041-6.043V293.636A6.041,6.041,0,0,0,887.749,287.595Zm-70.172,45.311a30.671,30.671,0,1,1,30.672-30.672A30.672,30.672,0,0,1,817.577,332.906Z" transform="translate(-503.531 -226.021)" fill="#289df2"/>
        <path id="Rectangle_144" data-name="Rectangle 144" d="M11.467,0H276.362A11.468,11.468,0,0,1,287.83,11.468V447.135A11.468,11.468,0,0,1,276.362,458.6H11.467A11.467,11.467,0,0,1,0,447.135V11.467A11.467,11.467,0,0,1,11.467,0Z" transform="translate(505.129 73.298) rotate(90)" fill="#0f3775"/>
        <rect id="Rectangle_145" data-name="Rectangle 145" width="47.306" height="10.423" transform="translate(79.966 108.907)" fill="#284d89"/>
        <rect id="Rectangle_146" data-name="Rectangle 146" width="47.306" height="10.423" transform="translate(136.893 108.907)" fill="#284d89"/>
        <rect id="Rectangle_147" data-name="Rectangle 147" width="47.306" height="10.423" transform="translate(281.215 108.907)" fill="#284d89"/>
        <rect id="Rectangle_148" data-name="Rectangle 148" width="47.306" height="10.423" transform="translate(425.538 108.907)" fill="#284d89"/>
        <rect id="Rectangle_149" data-name="Rectangle 149" width="84.589" height="10.423" transform="translate(190.613 108.907)" fill="#fecb00"/>
        <rect id="Rectangle_150" data-name="Rectangle 150" width="84.589" height="10.423" transform="translate(334.134 108.907)" fill="#2889db"/>
        <rect id="Rectangle_151" data-name="Rectangle 151" width="8.285" height="5.078" transform="translate(80.233 100.622)" fill="#2889db"/>
        <g id="Group_382" data-name="Group 382" transform="translate(80.233 127.883)">
          <rect id="Rectangle_152" data-name="Rectangle 152" width="86.46" height="5.078" fill="#fff"/>
          <rect id="Rectangle_153" data-name="Rectangle 153" width="25.657" height="5.078" transform="translate(0 8.953)" fill="#fff"/>
        </g>
        <rect id="Rectangle_154" data-name="Rectangle 154" width="101.827" height="166.773" rx="7.611" transform="translate(80.768 157.817)" fill="#284d89"/>
        <g id="Group_383" data-name="Group 383" transform="translate(93.596 182.271)">
          <rect id="Rectangle_155" data-name="Rectangle 155" width="34.076" height="5.212" fill="#fff"/>
          <rect id="Rectangle_156" data-name="Rectangle 156" width="34.076" height="5.212" transform="translate(0 11.626)" fill="#fff"/>
          <rect id="Rectangle_157" data-name="Rectangle 157" width="34.076" height="5.212" transform="translate(0 23.252)" fill="#fff"/>
        </g>
        <rect id="Rectangle_158" data-name="Rectangle 158" width="20.847" height="5.212" transform="translate(93.596 254.031)" fill="#fff"/>
        <rect id="Rectangle_159" data-name="Rectangle 159" width="20.847" height="5.212" transform="translate(93.596 265.657)" fill="#fff"/>
        <rect id="Rectangle_160" data-name="Rectangle 160" width="20.847" height="5.212" transform="translate(129.41 265.657)" fill="#fff"/>
        <rect id="Rectangle_161" data-name="Rectangle 161" width="13.096" height="5.212" transform="translate(93.596 240.802)" fill="#fff"/>
        <rect id="Rectangle_162" data-name="Rectangle 162" width="6.949" height="5.212" transform="translate(149.722 240.802)" fill="#fff"/>
        <rect id="Rectangle_163" data-name="Rectangle 163" width="35.813" height="5.212" transform="translate(111.236 240.802)" fill="#fecb00"/>
        <rect id="Rectangle_164" data-name="Rectangle 164" width="5.011" height="5.212" transform="translate(93.596 221.158)" fill="#2889db"/>
        <rect id="Rectangle_165" data-name="Rectangle 165" width="5.011" height="5.212" transform="translate(93.596 230.379)" fill="#fecb00"/>
        <path id="Path_782" data-name="Path 782" d="M660.039,419.228h-1.871l4.477-6.682h1.871Z" transform="translate(-538.648 -147.29)" fill="#fff"/>
        <rect id="Rectangle_166" data-name="Rectangle 166" width="77.373" height="4.41" transform="translate(93.596 280.891)" fill="#282e5c"/>
        <rect id="Rectangle_167" data-name="Rectangle 167" width="77.373" height="4.41" transform="translate(93.596 290.914)" fill="#282e5c"/>
        <rect id="Rectangle_168" data-name="Rectangle 168" width="231.985" height="76.972" rx="6.766" transform="translate(320.77 149.799)" fill="#289df2"/>
        <path id="Path_783" data-name="Path 783" d="M848.172,373.139s11.759-28.864,45.435-21.916,50.78,44.9,94.077,13.9" transform="translate(-458.448 -173.629)" fill="none" stroke="#fff" stroke-miterlimit="10" stroke-width="1.128"/>
        <rect id="Rectangle_169" data-name="Rectangle 169" width="4.811" height="4.811" transform="translate(493.957 201.113)" fill="#289df2" stroke="#fff" stroke-miterlimit="10" stroke-width="1.128"/>
        <line id="Line_16" data-name="Line 16" x2="60.936" transform="translate(395.604 176.258)" fill="#289df2" stroke="#fff" stroke-miterlimit="10" stroke-width="0.564"/>
        <line id="Line_17" data-name="Line 17" x2="60.936" transform="translate(465.895 204.855)" fill="#289df2" stroke="#fff" stroke-miterlimit="10" stroke-width="0.564"/>
        <rect id="Rectangle_170" data-name="Rectangle 170" width="4.811" height="4.811" transform="translate(421.262 173.852)" fill="#289df2" stroke="#fff" stroke-miterlimit="10" stroke-width="1.128"/>
        <g id="Group_387" data-name="Group 387" transform="translate(308.476 163.696)">
          <rect id="Rectangle_171" data-name="Rectangle 171" width="59.867" height="82.852" rx="4.886" fill="#284d89"/>
          <g id="Group_386" data-name="Group 386" transform="translate(9.354 11.76)">
            <g id="Group_384" data-name="Group 384">
              <rect id="Rectangle_172" data-name="Rectangle 172" width="34.076" height="4.698" fill="#fff"/>
              <rect id="Rectangle_173" data-name="Rectangle 173" width="34.076" height="4.698" transform="translate(0 10.48)" fill="#fff"/>
              <rect id="Rectangle_174" data-name="Rectangle 174" width="12.829" height="4.698" transform="translate(0 20.961)" fill="#fff"/>
            </g>
            <g id="Group_385" data-name="Group 385" transform="translate(0 31.803)">
              <rect id="Rectangle_175" data-name="Rectangle 175" width="22.183" height="4.698" fill="#289df2"/>
              <rect id="Rectangle_176" data-name="Rectangle 176" width="14.967" height="4.698" transform="translate(0 10.48)" fill="#289df2"/>
              <rect id="Rectangle_177" data-name="Rectangle 177" width="14.967" height="4.698" transform="translate(0 20.961)" fill="#fff"/>
            </g>
          </g>
        </g>
        <line id="Line_18" data-name="Line 18" x2="24.054" transform="translate(515.338 139.375)" fill="none" stroke="#284d89" stroke-linecap="round" stroke-linejoin="round" stroke-width="2.255"/>
        <path id="Path_784" data-name="Path 784" d="M975.17,420.538l-8.3,6.5L954.956,429.2s-11.189-.722-12.271-.722-8.663-6.136-8.663-6.136l-14.077-5.053L910.2,420.9l-11.55-2.527-17.325-1.082-16.6,6.5L851,425.952l-12.271,3.97-13.716,1.084-14.8-11.55L796.5,416.929l-14.077,7.941-11.189,3.609-12.7-.361-16.01,9.746h-9.547l-16.122,5.654" transform="translate(-513.877 -145.439)" fill="none" stroke="#fecb00" stroke-miterlimit="10" stroke-width="1.015"/>
        <g id="Group_389" data-name="Group 389" transform="translate(200.69 295.071)">
          <g id="Group_388" data-name="Group 388">
            <line id="Line_19" data-name="Line 19" x2="258.436" transform="translate(2.527 3.248)" fill="none" stroke="#f7f7f7" stroke-miterlimit="10" stroke-width="0.254"/>
            <rect id="Rectangle_178" data-name="Rectangle 178" width="2.647" height="6.497" fill="#f7f7f7"/>
            <rect id="Rectangle_179" data-name="Rectangle 179" width="2.647" height="6.497" transform="translate(259.399)" fill="#f7f7f7"/>
          </g>
          <path id="Path_785" data-name="Path 785" d="M717.022,435.8" transform="translate(-714.496 -432.547)" fill="none" stroke="#f7f7f7" stroke-miterlimit="10" stroke-width="0.508"/>
        </g>
        <line id="Line_20" data-name="Line 20" y1="21.777" transform="translate(461.412 276.543)" fill="none" stroke="#f7f7f7" stroke-miterlimit="10" stroke-width="0.254"/>
        <path id="Path_786" data-name="Path 786" d="M900.811,420.328a2.045,2.045,0,1,1-2.045-2.045A2.045,2.045,0,0,1,900.811,420.328Z" transform="translate(-437.956 -144.868)" fill="#f7f7f7"/>
        <rect id="Rectangle_180" data-name="Rectangle 180" width="160.74" height="2.888" transform="translate(262.893 307.704)" fill="#28385e"/>
        <rect id="Rectangle_181" data-name="Rectangle 181" width="98.658" height="2.888" transform="translate(262.893 307.704)" fill="#fecb00"/>
        <rect id="Rectangle_182" data-name="Rectangle 182" width="79.047" height="2.888" transform="translate(262.893 313.239)" fill="#28385e"/>
        <path id="Path_787" data-name="Path 787" d="M726.32,453.139h9.745l1.263-2.707H717.657v4.512h6.858Z" transform="translate(-513.538 -131.298)" fill="#fecb00"/>
        <rect id="Rectangle_183" data-name="Rectangle 183" width="1.083" height="1.083" transform="translate(231.897 319.104)" fill="#f7f7f7"/>
        <rect id="Rectangle_184" data-name="Rectangle 184" width="1.083" height="1.083" transform="translate(238.619 319.104)" fill="#f7f7f7"/>
        <rect id="Rectangle_185" data-name="Rectangle 185" width="1.083" height="1.083" transform="translate(245.342 319.104)" fill="#f7f7f7"/>
        <text id="_500" data-name="500" transform="translate(448.776 266.444)" fill="#f7f7f7" font-size="10" font-family="BebasNeue-Regular, Bebas Neue" letter-spacing="0.06em"><tspan x="0" y="0">500</tspan></text>
        <g id="Group_390" data-name="Group 390" transform="translate(428.927 307.704)">
          <path id="Path_788" data-name="Path 788" d="M882,451.057h-2.406l-3.85-8.663h2.406Z" transform="translate(-875.739 -442.395)" fill="#28385e"/>
          <path id="Path_789" data-name="Path 789" d="M886.395,451.057h-2.406l-3.85-8.663h2.406Z" transform="translate(-873.882 -442.395)" fill="#28385e"/>
          <path id="Path_790" data-name="Path 790" d="M890.794,451.057h-2.406l-3.85-8.663h2.406Z" transform="translate(-872.025 -442.395)" fill="#28385e"/>
          <path id="Path_791" data-name="Path 791" d="M895.194,451.057h-2.406l-3.85-8.663h2.406Z" transform="translate(-870.168 -442.395)" fill="#28385e"/>
          <path id="Path_792" data-name="Path 792" d="M899.508,451.057H897.1l-3.85-8.663h2.406Z" transform="translate(-868.347 -442.395)" fill="#28385e"/>
        </g>
        <g id="Group_392" data-name="Group 392" transform="translate(410.517 18.117)">
          <g id="Group_391" data-name="Group 391">
            <rect id="Rectangle_186" data-name="Rectangle 186" width="39.126" height="7.008" fill="#a9ccea"/>
            <rect id="Rectangle_187" data-name="Rectangle 187" width="58.995" height="7.007" transform="translate(0 12.54)" fill="#a9ccea"/>
            <rect id="Rectangle_188" data-name="Rectangle 188" width="72.75" height="7.008" transform="translate(0 25.08)" fill="#a9ccea"/>
            <rect id="Rectangle_189" data-name="Rectangle 189" width="27.816" height="7.008" transform="translate(0 37.62)" fill="#a9ccea"/>
          </g>
        </g>
        <g id="Group_394" data-name="Group 394" transform="translate(0 102.573)">
          <g id="Group_393" data-name="Group 393">
            <rect id="Rectangle_190" data-name="Rectangle 190" width="39.126" height="7.008" fill="#2889db"/>
            <rect id="Rectangle_191" data-name="Rectangle 191" width="58.995" height="7.007" transform="translate(0 12.54)" fill="#a9ccea"/>
            <rect id="Rectangle_192" data-name="Rectangle 192" width="72.75" height="7.008" transform="translate(0 25.08)" fill="#a9ccea"/>
            <rect id="Rectangle_193" data-name="Rectangle 193" width="27.816" height="7.008" transform="translate(0 37.62)" fill="#a9ccea"/>
          </g>
        </g>
        <rect id="Rectangle_194" data-name="Rectangle 194" width="166.773" height="21.648" transform="translate(97.605 348.643)" fill="none" stroke="#289df2" stroke-miterlimit="10" stroke-width="1.128"/>
        <rect id="Rectangle_195" data-name="Rectangle 195" width="8.018" height="49.177" transform="translate(178.052 178.129)" fill="none" stroke="#289df2" stroke-miterlimit="10" stroke-width="1.128"/>
        <g id="Group_398" data-name="Group 398" transform="translate(472.057 257.502)">
          <circle id="Ellipse_6" data-name="Ellipse 6" cx="27.635" cy="27.635" r="27.635" transform="translate(0 8.8) rotate(-9.162)" fill="#fecb00"/>
          <g id="Group_397" data-name="Group 397" transform="translate(13.99 25.003)">
            <g id="Group_395" data-name="Group 395">
              <path id="Path_793" data-name="Path 793" d="M931.595,428.762l-10.976,4.02,10.976,3.989v4.121l-15.69-5.967v-4.285l15.69-5.966Z" transform="translate(-915.905 -424.675)" fill="#f9fbfc"/>
            </g>
            <g id="Group_396" data-name="Group 396" transform="translate(19.275)">
              <path id="Path_794" data-name="Path 794" d="M929.459,424.675l15.69,5.966v4.285l-15.69,5.967v-4.121l10.976-3.989-10.976-4.02Z" transform="translate(-929.459 -424.675)" fill="#f9fbfc"/>
            </g>
          </g>
        </g>
        <path id="Path_795" data-name="Path 795" d="M962.888,446.318a3.608,3.608,0,1,1-3.608-3.608A3.608,3.608,0,0,1,962.888,446.318Z" transform="translate(-413.072 -134.557)" fill="none" stroke="#fecb00" stroke-miterlimit="10" stroke-width="1.128"/>
        <rect id="Rectangle_196" data-name="Rectangle 196" width="130.692" height="13.631" transform="translate(88.785 50.376)" fill="none" stroke="#289df2" stroke-miterlimit="10" stroke-width="1.128"/>
        <rect id="Rectangle_197" data-name="Rectangle 197" width="80.981" height="4.009" transform="translate(94.398 54.786)" fill="#289df2"/>
        <g id="Group_399" data-name="Group 399" transform="translate(199.967 156.747)">
          <rect id="Rectangle_198" data-name="Rectangle 198" width="95.68" height="4.811" fill="#284d89"/>
          <rect id="Rectangle_199" data-name="Rectangle 199" width="43.364" height="4.811" fill="#2889db"/>
        </g>
        <g id="Group_400" data-name="Group 400" transform="translate(199.967 169.175)">
          <rect id="Rectangle_200" data-name="Rectangle 200" width="95.68" height="4.811" fill="#fecb00"/>
          <rect id="Rectangle_201" data-name="Rectangle 201" width="66.616" height="4.811" fill="#fecb00"/>
        </g>
        <g id="Group_401" data-name="Group 401" transform="translate(199.967 181.603)">
          <rect id="Rectangle_202" data-name="Rectangle 202" width="95.68" height="4.811" fill="#284d89"/>
          <rect id="Rectangle_203" data-name="Rectangle 203" width="19.51" height="4.811" fill="#1ae5ff"/>
        </g>
        <g id="Group_402" data-name="Group 402" transform="translate(200.368 148.329)">
          <rect id="Rectangle_204" data-name="Rectangle 204" width="1.871" height="1.871" fill="#284d89"/>
          <rect id="Rectangle_205" data-name="Rectangle 205" width="1.871" height="1.871" transform="translate(6.414)" fill="#284d89"/>
          <rect id="Rectangle_206" data-name="Rectangle 206" width="1.871" height="1.871" transform="translate(12.829)" fill="#284d89"/>
        </g>
        <g id="Group_403" data-name="Group 403" transform="translate(378.41 213.853)">
          <rect id="Rectangle_207" data-name="Rectangle 207" width="3.118" height="3.118" fill="#fff"/>
          <rect id="Rectangle_208" data-name="Rectangle 208" width="3.118" height="3.118" transform="translate(10.691)" fill="#fff"/>
          <rect id="Rectangle_209" data-name="Rectangle 209" width="3.118" height="3.118" transform="translate(21.381)" fill="#fff"/>
        </g>
        <g id="Group_404" data-name="Group 404" transform="translate(423.416 89.948)">
          <rect id="Rectangle_210" data-name="Rectangle 210" width="5.846" height="5.846" fill="#fff"/>
          <rect id="Rectangle_211" data-name="Rectangle 211" width="5.846" height="5.846" transform="translate(20.045)" fill="#fff"/>
          <rect id="Rectangle_212" data-name="Rectangle 212" width="5.846" height="5.846" transform="translate(40.09)" fill="#fff"/>
        </g>
        <g id="Group_405" data-name="Group 405" transform="translate(340.565 331.555)">
          <rect id="Rectangle_213" data-name="Rectangle 213" width="5.846" height="5.846" fill="#fff"/>
          <rect id="Rectangle_214" data-name="Rectangle 214" width="5.846" height="5.846" transform="translate(20.045)" fill="#fff"/>
          <rect id="Rectangle_215" data-name="Rectangle 215" width="5.846" height="5.846" transform="translate(40.089)" fill="#fff"/>
        </g>
        <g id="Group_406" data-name="Group 406" transform="translate(95.289 169.665)">
          <rect id="Rectangle_216" data-name="Rectangle 216" width="3.118" height="3.118" fill="#fff"/>
          <rect id="Rectangle_217" data-name="Rectangle 217" width="3.118" height="3.118" transform="translate(10.69)" fill="#fff"/>
          <rect id="Rectangle_218" data-name="Rectangle 218" width="3.118" height="3.118" transform="translate(21.381)" fill="#fff"/>
        </g>
        <g id="Group_407" data-name="Group 407" transform="translate(480.594 165.834)">
          <rect id="Rectangle_219" data-name="Rectangle 219" width="51.849" height="5.078" fill="#fff"/>
          <rect id="Rectangle_220" data-name="Rectangle 220" width="15.387" height="5.078" transform="translate(0 8.953)" fill="#287dd1"/>
        </g>
        <path id="Path_796" data-name="Path 796" d="M627.707,353.295H616.482V342.07H606.059v11.225H594.834v10.423h11.225v11.225h10.423V363.718h11.225Z" transform="translate(-565.381 -177.037)" fill="#1ae5ff"/>
        <path id="Path_797" data-name="Path 797" d="M602.777,373.983h-6.845v-6.845h-6.356v6.845h-6.845v6.356h6.845v6.845h6.356v-6.845h6.845Z" transform="translate(-570.489 -166.456)" fill="#2889db"/>
        <g id="Group_408" data-name="Group 408" transform="translate(202.073 201.551)">
          <path id="Path_798" data-name="Path 798" d="M733.774,367.749A17.554,17.554,0,1,0,751.328,385.3,17.555,17.555,0,0,0,733.774,367.749Zm0,26.7a9.148,9.148,0,1,1,9.147-9.148A9.148,9.148,0,0,1,733.774,394.452Z" transform="translate(-716.218 -367.749)" fill="#284d89"/>
          <path id="Path_799" data-name="Path 799" d="M721.419,383.573a4.3,4.3,0,0,0,3.8-2.422,9.142,9.142,0,0,1,16.3,0,4.3,4.3,0,0,0,3.8,2.422h0a4.2,4.2,0,0,0,3.823-5.977,17.557,17.557,0,0,0-31.546,0,4.2,4.2,0,0,0,3.824,5.977Z" transform="translate(-715.813 -367.749)" fill="#289df2"/>
        </g>
        <g id="Group_409" data-name="Group 409" transform="translate(249.112 201.551)">
          <path id="Path_800" data-name="Path 800" d="M749.295,385.3a17.554,17.554,0,1,0,17.554-17.554A17.554,17.554,0,0,0,749.295,385.3Zm26.7,0a9.148,9.148,0,1,1-9.148-9.148A9.148,9.148,0,0,1,776,385.3Z" transform="translate(-749.295 -367.749)" fill="#284d89"/>
          <path id="Path_801" data-name="Path 801" d="M765.12,396.848a4.3,4.3,0,0,0-2.423-3.8,9.143,9.143,0,0,1,0-16.3,4.3,4.3,0,0,0,2.423-3.8h0a4.2,4.2,0,0,0-5.978-3.823,17.556,17.556,0,0,0,0,31.545,4.2,4.2,0,0,0,5.978-3.823Z" transform="translate(-749.295 -367.344)" fill="#fecb00"/>
        </g>
        <rect id="Rectangle_221" data-name="Rectangle 221" width="32.072" height="76.972" transform="translate(137.428 149.799)" fill="none" stroke="#289df2" stroke-miterlimit="10" stroke-width="1.128"/>
        <g id="Group_410" data-name="Group 410" transform="translate(141.971 164.632)">
          <rect id="Rectangle_222" data-name="Rectangle 222" width="9.354" height="2.765" fill="#1ae5ff"/>
          <rect id="Rectangle_223" data-name="Rectangle 223" width="9.354" height="2.765" transform="translate(0 6.168)" fill="#1ae5ff"/>
          <rect id="Rectangle_224" data-name="Rectangle 224" width="9.354" height="2.765" transform="translate(0 12.336)" fill="#1ae5ff"/>
          <rect id="Rectangle_225" data-name="Rectangle 225" width="9.354" height="2.765" transform="translate(0 44.407)" fill="#1ae5ff"/>
        </g>
        <g id="Group_411" data-name="Group 411" transform="translate(141.971 186.013)">
          <rect id="Rectangle_226" data-name="Rectangle 226" width="13.631" height="2.765" fill="#1ae5ff"/>
          <rect id="Rectangle_227" data-name="Rectangle 227" width="13.631" height="2.765" transform="translate(0 6.168)" fill="#fff"/>
          <rect id="Rectangle_228" data-name="Rectangle 228" width="13.631" height="2.765" transform="translate(0 12.336)" fill="#fff"/>
        </g>
        <rect id="Rectangle_229" data-name="Rectangle 229" width="40.624" height="40.624" transform="translate(22.504 246.014)" fill="#289df2"/>
        <rect id="Rectangle_230" data-name="Rectangle 230" width="40.624" height="40.624" transform="translate(1.123 255.635)" fill="none" stroke="#289df2" stroke-miterlimit="10" stroke-width="1.128"/>
        <rect id="Rectangle_231" data-name="Rectangle 231" width="17.105" height="17.105" transform="translate(505.717 363.61)" fill="none" stroke="#289df2" stroke-miterlimit="10" stroke-width="1.128"/>
        <g id="Group_412" data-name="Group 412" transform="translate(292.04 327.395)">
          <path id="Path_802" data-name="Path 802" d="M785.4,464.153h14.432l8.018,8.018h83.386l12.829-12.829h44.9" transform="translate(-776.982 -454.932)" fill="none" stroke="#fff" stroke-miterlimit="10" stroke-width="1.128"/>
          <circle id="Ellipse_7" data-name="Ellipse 7" cx="4.209" cy="4.209" r="4.209" transform="translate(0 5.212)" fill="none" stroke="#fff" stroke-miterlimit="10" stroke-width="1.128"/>
          <circle id="Ellipse_8" data-name="Ellipse 8" cx="4.209" cy="4.209" r="4.209" transform="translate(172.118)" fill="none" stroke="#fff" stroke-miterlimit="10" stroke-width="1.128"/>
        </g>
        <path id="Path_803" data-name="Path 803" d="M946.441,305.13a5.345,5.345,0,1,1-5.346-5.346A5.346,5.346,0,0,1,946.441,305.13Z" transform="translate(-421.481 -194.886)" fill="#289df2"/>
        <path id="Path_804" data-name="Path 804" d="M599.134,451.719a5.345,5.345,0,1,1-5.344-5.344A5.344,5.344,0,0,1,599.134,451.719Z" transform="translate(-568.078 -133.011)" fill="#fecb00"/>
        <path id="Path_805" data-name="Path 805" d="M618.805,466.818a9.355,9.355,0,1,1-9.355-9.355A9.353,9.353,0,0,1,618.805,466.818Z" transform="translate(-563.16 -128.33)" fill="#fecb00"/>
        <g id="Group_413" data-name="Group 413" transform="translate(336.806 370.024)">
          <rect id="Rectangle_232" data-name="Rectangle 232" width="37.417" height="8.552" fill="none" stroke="#289df2" stroke-miterlimit="10" stroke-width="1.128"/>
          <rect id="Rectangle_233" data-name="Rectangle 233" width="82.05" height="8.552" transform="translate(0 16.036)" fill="none" stroke="#289df2" stroke-miterlimit="10" stroke-width="1.128"/>
        </g>
        <g id="Group_414" data-name="Group 414" transform="translate(98.518 378.215)">
          <line id="Line_21" data-name="Line 21" x1="9.069" y2="9.069" fill="none" stroke="#289df2" stroke-linecap="round" stroke-linejoin="round" stroke-width="1.128"/>
          <line id="Line_22" data-name="Line 22" x1="9.069" y2="9.069" transform="translate(8.72)" fill="none" stroke="#289df2" stroke-linecap="round" stroke-linejoin="round" stroke-width="1.128"/>
          <line id="Line_23" data-name="Line 23" x1="9.069" y2="9.069" transform="translate(17.44)" fill="none" stroke="#289df2" stroke-linecap="round" stroke-linejoin="round" stroke-width="1.128"/>
          <line id="Line_24" data-name="Line 24" x1="9.069" y2="9.069" transform="translate(26.159)" fill="none" stroke="#289df2" stroke-linecap="round" stroke-linejoin="round" stroke-width="1.128"/>
          <line id="Line_25" data-name="Line 25" x1="9.069" y2="9.069" transform="translate(34.879)" fill="none" stroke="#289df2" stroke-linecap="round" stroke-linejoin="round" stroke-width="1.128"/>
        </g>
      </g>
    </g>
  </g>
</svg>
