<svg xmlns="http://www.w3.org/2000/svg" xmlns:xlink="http://www.w3.org/1999/xlink" width="1920" height="616" viewBox="0 0 1920 616">
  <defs>
    <filter id="Rectangle_11" x="-9" y="-6" width="1938" height="619" filterUnits="userSpaceOnUse">
      <feOffset dy="3" input="SourceAlpha"/>
      <feGaussianBlur stdDeviation="3" result="blur"/>
      <feFlood flood-opacity="0.09"/>
      <feComposite operator="in" in2="blur"/>
      <feComposite in="SourceGraphic"/>
    </filter>
    <clipPath id="clip-carousel-2">
      <rect width="1920" height="616"/>
    </clipPath>
  </defs>
  <g id="carousel-2" clip-path="url(#clip-carousel-2)">
    <rect width="1920" height="616" fill="rgba(255,255,255,0)"/>
    <g transform="matrix(1, 0, 0, 1, 0, 0)" filter="url(#Rectangle_11)">
      <rect id="Rectangle_11-2" data-name="Rectangle 11" width="1920" height="601" fill="#fff"/>
    </g>
    <path id="Path_2" data-name="Path 2" d="M186.585,0,249,35.765,1.826,177.257V0Z" transform="translate(-2 1)" fill="#6bb6f7" opacity="0.5"/>
    <path id="Path_3" data-name="Path 3" d="M208.144,600H1.826V481.341Z" transform="translate(-2 1)" fill="#0e47a2" opacity="0.6"/>
    <path id="Path_4" data-name="Path 4" d="M1735.24,0l-62.415,35.765L1920,177.257V0Z" transform="translate(0.175 0)" fill="#6bb6f7" opacity="0.5"/>
    <path id="Path_5" data-name="Path 5" d="M1713.681,600H1920V481.341Z" transform="translate(0.175 1)" fill="#0e47a2" opacity="0.6"/>
    <g id="Group_534" data-name="Group 534" transform="translate(401.877 -141.13)">
      <circle id="Ellipse_4" data-name="Ellipse 4" cx="132.329" cy="132.329" r="132.329" transform="translate(926.419 199.758)" fill="#e5f1ff"/>
      <circle id="Ellipse_5" data-name="Ellipse 5" cx="77.344" cy="77.344" r="77.344" transform="translate(608.41 611.052) rotate(-45)" fill="#e5f1ff"/>
      <g id="Group_415" data-name="Group 415" transform="translate(574.123 240.254)">
        <path id="Path_778" data-name="Path 778" d="M691.478,228.368a70.708,70.708,0,1,0,70.708,70.709A70.709,70.709,0,0,0,691.478,228.368Zm0,115.916a45.207,45.207,0,1,1,45.207-45.207A45.208,45.208,0,0,1,691.478,344.284Z" transform="translate(-548.843 -224.749)" fill="#a9ccea"/>
        <path id="Path_779" data-name="Path 779" d="M917.688,530.919a8.114,8.114,0,0,1-8.114,8.114H704.4a8.114,8.114,0,1,1,0-16.227h72.832l10.047-18.547h39.411l10.046,18.547h72.834A8.114,8.114,0,0,1,917.688,530.919Z" transform="translate(-507.915 -75.23)" fill="#0f3157"/>
        <rect id="Rectangle_142" data-name="Rectangle 142" width="33.616" height="9.853" transform="translate(280.574 412.221)" fill="#fecb00"/>
        <rect id="Rectangle_143" data-name="Rectangle 143" width="33.616" height="9.853" transform="translate(280.574 395.993)" fill="#fecb00"/>
        <path id="Path_780" data-name="Path 780" d="M965.655,496.941a52.53,52.53,0,1,1,29.012-27.286" transform="translate(-400.628 -134.291)" fill="none" stroke="#fecb00" stroke-linecap="round" stroke-linejoin="round" stroke-width="1.128" stroke-dasharray="0 5.638"/>
        <path id="Path_781" data-name="Path 781" d="M900.086,292.784h-8.393a69.033,69.033,0,0,0-8.6-20.772l5.933-5.933a6.551,6.551,0,0,0,0-9.264l-13.182-13.182a6.551,6.551,0,0,0-9.264,0l-5.933,5.932a69.071,69.071,0,0,0-20.772-8.6v-8.393a6.55,6.55,0,0,0-6.55-6.55H814.679a6.549,6.549,0,0,0-6.55,6.55v8.393a69.062,69.062,0,0,0-20.773,8.6l-5.933-5.932a6.549,6.549,0,0,0-9.262,0l-13.184,13.182a6.551,6.551,0,0,0,0,9.264l5.933,5.933a69.072,69.072,0,0,0-8.6,20.772h-8.393a6.55,6.55,0,0,0-6.55,6.55v18.644a6.551,6.551,0,0,0,6.55,6.552h8.393a69.108,69.108,0,0,0,8.6,20.772l-5.932,5.933a6.549,6.549,0,0,0,0,9.263l13.184,13.184a6.549,6.549,0,0,0,9.262,0l5.933-5.932a69.1,69.1,0,0,0,20.773,8.6v8.393a6.549,6.549,0,0,0,6.55,6.55h18.644a6.55,6.55,0,0,0,6.55-6.55V376.35a69.111,69.111,0,0,0,20.772-8.6l5.933,5.932a6.551,6.551,0,0,0,9.264,0L889.024,360.5a6.549,6.549,0,0,0,0-9.263l-5.932-5.933a69.069,69.069,0,0,0,8.6-20.772h8.393a6.551,6.551,0,0,0,6.55-6.552V299.335A6.55,6.55,0,0,0,900.086,292.784ZM824,341.914a33.256,33.256,0,1,1,33.257-33.257A33.257,33.257,0,0,1,824,341.914Z" transform="translate(-483.487 -226.021)" fill="#289df2"/>
        <path id="Rectangle_144" data-name="Rectangle 144" d="M11.467,0H300.62a11.468,11.468,0,0,1,11.468,11.468V485.786a11.468,11.468,0,0,1-11.468,11.468H11.467A11.467,11.467,0,0,1,0,485.786V11.467A11.467,11.467,0,0,1,11.467,0Z" transform="translate(547.7 79.475) rotate(90)" fill="#0f3775"/>
        <rect id="Rectangle_145" data-name="Rectangle 145" width="51.293" height="11.302" transform="translate(86.705 118.086)" fill="#284d89"/>
        <rect id="Rectangle_146" data-name="Rectangle 146" width="51.293" height="11.302" transform="translate(148.43 118.086)" fill="#284d89"/>
        <rect id="Rectangle_147" data-name="Rectangle 147" width="51.293" height="11.302" transform="translate(304.916 118.086)" fill="#284d89"/>
        <rect id="Rectangle_148" data-name="Rectangle 148" width="51.293" height="11.302" transform="translate(461.402 118.086)" fill="#284d89"/>
        <rect id="Rectangle_149" data-name="Rectangle 149" width="91.718" height="11.302" transform="translate(206.678 118.086)" fill="#fecb00"/>
        <rect id="Rectangle_150" data-name="Rectangle 150" width="91.718" height="11.302" transform="translate(362.294 118.086)" fill="#2889db"/>
        <rect id="Rectangle_151" data-name="Rectangle 151" width="8.983" height="5.506" transform="translate(86.995 109.102)" fill="#2889db"/>
        <g id="Group_382" data-name="Group 382" transform="translate(86.995 138.661)">
          <rect id="Rectangle_152" data-name="Rectangle 152" width="93.746" height="5.506" fill="#fff"/>
          <rect id="Rectangle_153" data-name="Rectangle 153" width="27.82" height="5.506" transform="translate(0 9.708)" fill="#fff"/>
        </g>
        <rect id="Rectangle_154" data-name="Rectangle 154" width="110.409" height="180.828" rx="7.611" transform="translate(87.575 171.117)" fill="#284d89"/>
        <g id="Group_383" data-name="Group 383" transform="translate(101.484 197.633)">
          <rect id="Rectangle_155" data-name="Rectangle 155" width="36.948" height="5.651" fill="#fff"/>
          <rect id="Rectangle_156" data-name="Rectangle 156" width="36.948" height="5.651" transform="translate(0 12.606)" fill="#fff"/>
          <rect id="Rectangle_157" data-name="Rectangle 157" width="36.948" height="5.651" transform="translate(0 25.212)" fill="#fff"/>
        </g>
        <rect id="Rectangle_158" data-name="Rectangle 158" width="22.603" height="5.651" transform="translate(101.484 275.441)" fill="#fff"/>
        <rect id="Rectangle_159" data-name="Rectangle 159" width="22.603" height="5.651" transform="translate(101.484 288.047)" fill="#fff"/>
        <rect id="Rectangle_160" data-name="Rectangle 160" width="22.603" height="5.651" transform="translate(140.316 288.047)" fill="#fff"/>
        <rect id="Rectangle_161" data-name="Rectangle 161" width="14.2" height="5.651" transform="translate(101.484 261.096)" fill="#fff"/>
        <rect id="Rectangle_162" data-name="Rectangle 162" width="7.534" height="5.651" transform="translate(162.34 261.096)" fill="#fff"/>
        <rect id="Rectangle_163" data-name="Rectangle 163" width="38.832" height="5.651" transform="translate(120.611 261.096)" fill="#fecb00"/>
        <rect id="Rectangle_164" data-name="Rectangle 164" width="5.434" height="5.651" transform="translate(101.484 239.797)" fill="#2889db"/>
        <rect id="Rectangle_165" data-name="Rectangle 165" width="5.434" height="5.651" transform="translate(101.484 249.795)" fill="#fecb00"/>
        <path id="Path_782" data-name="Path 782" d="M660.2,419.791h-2.029l4.854-7.245h2.029Z" transform="translate(-528.574 -124.934)" fill="#fff"/>
        <rect id="Rectangle_166" data-name="Rectangle 166" width="83.894" height="4.782" transform="translate(101.484 304.565)" fill="#282e5c"/>
        <rect id="Rectangle_167" data-name="Rectangle 167" width="83.894" height="4.781" transform="translate(101.484 315.432)" fill="#282e5c"/>
        <rect id="Rectangle_168" data-name="Rectangle 168" width="251.536" height="83.459" rx="6.766" transform="translate(347.805 162.423)" fill="#289df2"/>
        <path id="Path_783" data-name="Path 783" d="M848.172,375.077s12.75-31.3,49.264-23.763S952.5,400,999.442,366.384" transform="translate(-425.602 -158.753)" fill="none" stroke="#fff" stroke-miterlimit="10" stroke-width="1.128"/>
        <rect id="Rectangle_169" data-name="Rectangle 169" width="5.216" height="5.216" transform="translate(535.588 218.063)" fill="#289df2" stroke="#fff" stroke-miterlimit="10" stroke-width="1.128"/>
        <line id="Line_16" data-name="Line 16" x2="66.072" transform="translate(428.945 191.112)" fill="#289df2" stroke="#fff" stroke-miterlimit="10" stroke-width="0.564"/>
        <line id="Line_17" data-name="Line 17" x2="66.072" transform="translate(505.16 222.12)" fill="#289df2" stroke="#fff" stroke-miterlimit="10" stroke-width="0.564"/>
        <rect id="Rectangle_170" data-name="Rectangle 170" width="5.216" height="5.216" transform="translate(456.765 188.504)" fill="#289df2" stroke="#fff" stroke-miterlimit="10" stroke-width="1.128"/>
        <g id="Group_387" data-name="Group 387" transform="translate(334.474 177.492)">
          <rect id="Rectangle_171" data-name="Rectangle 171" width="64.913" height="89.834" rx="4.886" fill="#284d89"/>
          <g id="Group_386" data-name="Group 386" transform="translate(10.143 12.751)">
            <g id="Group_384" data-name="Group 384">
              <rect id="Rectangle_172" data-name="Rectangle 172" width="36.948" height="5.094" fill="#fff"/>
              <rect id="Rectangle_173" data-name="Rectangle 173" width="36.948" height="5.094" transform="translate(0 11.364)" fill="#fff"/>
              <rect id="Rectangle_174" data-name="Rectangle 174" width="13.91" height="5.094" transform="translate(0 22.727)" fill="#fff"/>
            </g>
            <g id="Group_385" data-name="Group 385" transform="translate(0 34.483)">
              <rect id="Rectangle_175" data-name="Rectangle 175" width="24.052" height="5.094" fill="#289df2"/>
              <rect id="Rectangle_176" data-name="Rectangle 176" width="16.228" height="5.094" transform="translate(0 11.364)" fill="#289df2"/>
              <rect id="Rectangle_177" data-name="Rectangle 177" width="16.228" height="5.094" transform="translate(0 22.727)" fill="#fff"/>
            </g>
          </g>
        </g>
        <line id="Line_18" data-name="Line 18" x2="26.081" transform="translate(558.771 151.122)" fill="none" stroke="#284d89" stroke-linecap="round" stroke-linejoin="round" stroke-width="2.255"/>
        <path id="Path_784" data-name="Path 784" d="M996.94,420.842l-9,7.045-12.915,2.348s-12.132-.783-13.305-.783-9.394-6.654-9.394-6.654l-15.264-5.479-10.565,3.913-12.524-2.74-18.785-1.173-18,7.044-14.872,2.348L849,431.018l-14.872,1.175-16.046-12.524-14.872-2.74-15.264,8.61-12.132,3.914-13.774-.392-17.359,10.567H734.334l-17.481,6.131" transform="translate(-496.77 -122.559)" fill="none" stroke="#fecb00" stroke-miterlimit="10" stroke-width="1.015"/>
        <g id="Group_389" data-name="Group 389" transform="translate(217.604 319.939)">
          <g id="Group_388" data-name="Group 388">
            <line id="Line_19" data-name="Line 19" x2="280.217" transform="translate(2.74 3.522)" fill="none" stroke="#f7f7f7" stroke-miterlimit="10" stroke-width="0.254"/>
            <rect id="Rectangle_178" data-name="Rectangle 178" width="2.87" height="7.045" fill="#f7f7f7"/>
            <rect id="Rectangle_179" data-name="Rectangle 179" width="2.87" height="7.045" transform="translate(281.26)" fill="#f7f7f7"/>
          </g>
          <path id="Path_785" data-name="Path 785" d="M717.022,435.8" transform="translate(-714.283 -432.273)" fill="none" stroke="#f7f7f7" stroke-miterlimit="10" stroke-width="0.508"/>
        </g>
        <line id="Line_20" data-name="Line 20" y1="23.612" transform="translate(500.3 299.849)" fill="none" stroke="#f7f7f7" stroke-miterlimit="10" stroke-width="0.254"/>
        <path id="Path_786" data-name="Path 786" d="M901.156,420.5a2.217,2.217,0,1,1-2.217-2.217A2.218,2.218,0,0,1,901.156,420.5Z" transform="translate(-399.291 -121.825)" fill="#f7f7f7"/>
        <rect id="Rectangle_180" data-name="Rectangle 180" width="174.288" height="3.131" transform="translate(285.049 333.637)" fill="#28385e"/>
        <rect id="Rectangle_181" data-name="Rectangle 181" width="106.973" height="3.131" transform="translate(285.049 333.637)" fill="#fecb00"/>
        <rect id="Rectangle_182" data-name="Rectangle 182" width="85.709" height="3.131" transform="translate(285.049 339.638)" fill="#28385e"/>
        <path id="Path_787" data-name="Path 787" d="M727.05,453.367h10.567l1.37-2.935H717.657v4.892h7.436Z" transform="translate(-496.335 -104.402)" fill="#fecb00"/>
        <rect id="Rectangle_183" data-name="Rectangle 183" width="1.174" height="1.174" transform="translate(251.441 345.998)" fill="#f7f7f7"/>
        <rect id="Rectangle_184" data-name="Rectangle 184" width="1.174" height="1.174" transform="translate(258.73 345.998)" fill="#f7f7f7"/>
        <rect id="Rectangle_185" data-name="Rectangle 185" width="1.174" height="1.174" transform="translate(266.019 345.998)" fill="#f7f7f7"/>
        <text id="_500" data-name="500" transform="translate(486.598 288.141)" fill="#f7f7f7" font-size="10" font-family="BebasNeue-Regular, Bebas Neue" letter-spacing="0.06em"><tspan x="0" y="0">500</tspan></text>
        <g id="Group_390" data-name="Group 390" transform="translate(465.077 333.637)">
          <path id="Path_788" data-name="Path 788" d="M882.523,451.787h-2.609l-4.174-9.393h2.609Z" transform="translate(-875.739 -442.395)" fill="#28385e"/>
          <path id="Path_789" data-name="Path 789" d="M886.922,451.787h-2.609l-4.175-9.393h2.609Z" transform="translate(-873.355 -442.395)" fill="#28385e"/>
          <path id="Path_790" data-name="Path 790" d="M891.322,451.787h-2.609l-4.175-9.393h2.609Z" transform="translate(-870.971 -442.395)" fill="#28385e"/>
          <path id="Path_791" data-name="Path 791" d="M895.721,451.787h-2.609l-4.174-9.393h2.609Z" transform="translate(-868.586 -442.395)" fill="#28385e"/>
          <path id="Path_792" data-name="Path 792" d="M900.036,451.787h-2.609l-4.174-9.393h2.609Z" transform="translate(-866.248 -442.395)" fill="#28385e"/>
        </g>
        <g id="Group_392" data-name="Group 392" transform="translate(445.115 19.644)">
          <g id="Group_391" data-name="Group 391">
            <rect id="Rectangle_186" data-name="Rectangle 186" width="42.424" height="7.598" fill="#a9ccea"/>
            <rect id="Rectangle_187" data-name="Rectangle 187" width="63.967" height="7.598" transform="translate(0 13.597)" fill="#a9ccea"/>
            <rect id="Rectangle_188" data-name="Rectangle 188" width="78.881" height="7.599" transform="translate(0 27.193)" fill="#a9ccea"/>
            <rect id="Rectangle_189" data-name="Rectangle 189" width="30.161" height="7.598" transform="translate(0 40.791)" fill="#a9ccea"/>
          </g>
        </g>
        <g id="Group_394" data-name="Group 394" transform="translate(0 111.217)">
          <g id="Group_393" data-name="Group 393">
            <rect id="Rectangle_190" data-name="Rectangle 190" width="42.424" height="7.598" fill="#2889db"/>
            <rect id="Rectangle_191" data-name="Rectangle 191" width="63.967" height="7.598" transform="translate(0 13.597)" fill="#a9ccea"/>
            <rect id="Rectangle_192" data-name="Rectangle 192" width="78.881" height="7.599" transform="translate(0 27.193)" fill="#a9ccea"/>
            <rect id="Rectangle_193" data-name="Rectangle 193" width="30.161" height="7.598" transform="translate(0 40.791)" fill="#a9ccea"/>
          </g>
        </g>
        <rect id="Rectangle_194" data-name="Rectangle 194" width="180.828" height="23.473" transform="translate(105.831 378.026)" fill="none" stroke="#289df2" stroke-miterlimit="10" stroke-width="1.128"/>
        <rect id="Rectangle_195" data-name="Rectangle 195" width="8.694" height="53.321" transform="translate(193.058 193.141)" fill="none" stroke="#289df2" stroke-miterlimit="10" stroke-width="1.128"/>
        <g id="Group_398" data-name="Group 398" transform="translate(511.842 279.204)">
          <circle id="Ellipse_6" data-name="Ellipse 6" cx="29.964" cy="29.964" r="29.964" transform="translate(0 9.542) rotate(-9.162)" fill="#fecb00"/>
          <g id="Group_397" data-name="Group 397" transform="translate(15.169 27.111)">
            <g id="Group_395" data-name="Group 395">
              <path id="Path_793" data-name="Path 793" d="M932.917,429.107l-11.9,4.359,11.9,4.325v4.469l-17.012-6.47v-4.646l17.012-6.469Z" transform="translate(-915.905 -424.675)" fill="#f9fbfc"/>
            </g>
            <g id="Group_396" data-name="Group 396" transform="translate(20.899)">
              <path id="Path_794" data-name="Path 794" d="M929.459,424.675l17.012,6.469v4.646l-17.012,6.47v-4.469l11.9-4.325-11.9-4.359Z" transform="translate(-929.459 -424.675)" fill="#f9fbfc"/>
            </g>
          </g>
        </g>
        <path id="Path_795" data-name="Path 795" d="M963.5,446.622a3.912,3.912,0,1,1-3.912-3.912A3.912,3.912,0,0,1,963.5,446.622Z" transform="translate(-367.343 -108.587)" fill="none" stroke="#fecb00" stroke-miterlimit="10" stroke-width="1.128"/>
        <rect id="Rectangle_196" data-name="Rectangle 196" width="141.707" height="14.779" transform="translate(96.268 54.622)" fill="none" stroke="#289df2" stroke-miterlimit="10" stroke-width="1.128"/>
        <rect id="Rectangle_197" data-name="Rectangle 197" width="87.806" height="4.347" transform="translate(102.354 59.404)" fill="#289df2"/>
        <g id="Group_399" data-name="Group 399" transform="translate(216.82 169.958)">
          <rect id="Rectangle_198" data-name="Rectangle 198" width="103.744" height="5.216" fill="#284d89"/>
          <rect id="Rectangle_199" data-name="Rectangle 199" width="47.018" height="5.216" fill="#2889db"/>
        </g>
        <g id="Group_400" data-name="Group 400" transform="translate(216.82 183.433)">
          <rect id="Rectangle_200" data-name="Rectangle 200" width="103.744" height="5.216" fill="#fecb00"/>
          <rect id="Rectangle_201" data-name="Rectangle 201" width="72.23" height="5.216" fill="#fecb00"/>
        </g>
        <g id="Group_401" data-name="Group 401" transform="translate(216.82 196.908)">
          <rect id="Rectangle_202" data-name="Rectangle 202" width="103.744" height="5.216" fill="#284d89"/>
          <rect id="Rectangle_203" data-name="Rectangle 203" width="21.155" height="5.216" fill="#1ae5ff"/>
        </g>
        <g id="Group_402" data-name="Group 402" transform="translate(217.255 160.83)">
          <rect id="Rectangle_204" data-name="Rectangle 204" width="2.029" height="2.029" fill="#284d89"/>
          <rect id="Rectangle_205" data-name="Rectangle 205" width="2.029" height="2.029" transform="translate(6.955)" fill="#284d89"/>
          <rect id="Rectangle_206" data-name="Rectangle 206" width="2.028" height="2.029" transform="translate(13.91)" fill="#284d89"/>
        </g>
        <g id="Group_403" data-name="Group 403" transform="translate(410.302 231.876)">
          <rect id="Rectangle_207" data-name="Rectangle 207" width="3.381" height="3.381" fill="#fff"/>
          <rect id="Rectangle_208" data-name="Rectangle 208" width="3.381" height="3.381" transform="translate(11.592)" fill="#fff"/>
          <rect id="Rectangle_209" data-name="Rectangle 209" width="3.381" height="3.381" transform="translate(23.183)" fill="#fff"/>
        </g>
        <g id="Group_404" data-name="Group 404" transform="translate(459.102 97.529)">
          <rect id="Rectangle_210" data-name="Rectangle 210" width="6.339" height="6.339" fill="#fff"/>
          <rect id="Rectangle_211" data-name="Rectangle 211" width="6.339" height="6.339" transform="translate(21.734)" fill="#fff"/>
          <rect id="Rectangle_212" data-name="Rectangle 212" width="6.339" height="6.339" transform="translate(43.468)" fill="#fff"/>
        </g>
        <g id="Group_405" data-name="Group 405" transform="translate(369.267 359.498)">
          <rect id="Rectangle_213" data-name="Rectangle 213" width="6.339" height="6.339" fill="#fff"/>
          <rect id="Rectangle_214" data-name="Rectangle 214" width="6.339" height="6.339" transform="translate(21.734)" fill="#fff"/>
          <rect id="Rectangle_215" data-name="Rectangle 215" width="6.339" height="6.339" transform="translate(43.468)" fill="#fff"/>
        </g>
        <g id="Group_406" data-name="Group 406" transform="translate(103.32 183.964)">
          <rect id="Rectangle_216" data-name="Rectangle 216" width="3.381" height="3.381" fill="#fff"/>
          <rect id="Rectangle_217" data-name="Rectangle 217" width="3.381" height="3.381" transform="translate(11.591)" fill="#fff"/>
          <rect id="Rectangle_218" data-name="Rectangle 218" width="3.381" height="3.381" transform="translate(23.183)" fill="#fff"/>
        </g>
        <g id="Group_407" data-name="Group 407" transform="translate(521.098 179.811)">
          <rect id="Rectangle_219" data-name="Rectangle 219" width="56.219" height="5.506" fill="#fff"/>
          <rect id="Rectangle_220" data-name="Rectangle 220" width="16.683" height="5.506" transform="translate(0 9.708)" fill="#287dd1"/>
        </g>
        <path id="Path_796" data-name="Path 796" d="M630.478,354.241H618.307V342.07H607v12.171H594.834v11.3H607v12.171h11.3V365.543h12.171Z" transform="translate(-562.899 -163.128)" fill="#1ae5ff"/>
        <path id="Path_797" data-name="Path 797" d="M604.467,374.56h-7.421v-7.421h-6.891v7.421h-7.422v6.891h7.422v7.421h6.891v-7.421h7.421Z" transform="translate(-569.457 -149.542)" fill="#2889db"/>
        <g id="Group_408" data-name="Group 408" transform="translate(219.104 218.537)">
          <path id="Path_798" data-name="Path 798" d="M735.253,367.749a19.034,19.034,0,1,0,19.034,19.034A19.035,19.035,0,0,0,735.253,367.749Zm0,28.953a9.919,9.919,0,1,1,9.918-9.919A9.919,9.919,0,0,1,735.253,396.7Z" transform="translate(-716.218 -367.749)" fill="#284d89"/>
          <path id="Path_799" data-name="Path 799" d="M721.776,384.906a4.659,4.659,0,0,0,4.122-2.626,9.913,9.913,0,0,1,17.669,0,4.66,4.66,0,0,0,4.123,2.626h0a4.55,4.55,0,0,0,4.145-6.481,19.036,19.036,0,0,0-34.2,0,4.551,4.551,0,0,0,4.146,6.481Z" transform="translate(-715.698 -367.749)" fill="#289df2"/>
        </g>
        <g id="Group_409" data-name="Group 409" transform="translate(270.107 218.537)">
          <path id="Path_800" data-name="Path 800" d="M749.3,386.783a19.034,19.034,0,1,0,19.034-19.034A19.034,19.034,0,0,0,749.3,386.783Zm28.953,0a9.919,9.919,0,1,1-9.919-9.919A9.919,9.919,0,0,1,778.248,386.783Z" transform="translate(-749.295 -367.749)" fill="#284d89"/>
          <path id="Path_801" data-name="Path 801" d="M766.454,399.22a4.661,4.661,0,0,0-2.627-4.122,9.914,9.914,0,0,1,0-17.669,4.663,4.663,0,0,0,2.627-4.123h0a4.551,4.551,0,0,0-6.482-4.145,19.035,19.035,0,0,0,0,34.2,4.551,4.551,0,0,0,6.482-4.145Z" transform="translate(-749.295 -367.229)" fill="#fecb00"/>
        </g>
        <rect id="Rectangle_221" data-name="Rectangle 221" width="34.775" height="83.459" transform="translate(149.01 162.423)" fill="none" stroke="#289df2" stroke-miterlimit="10" stroke-width="1.128"/>
        <g id="Group_410" data-name="Group 410" transform="translate(153.936 178.507)">
          <rect id="Rectangle_222" data-name="Rectangle 222" width="10.143" height="2.998" fill="#1ae5ff"/>
          <rect id="Rectangle_223" data-name="Rectangle 223" width="10.143" height="2.998" transform="translate(0 6.688)" fill="#1ae5ff"/>
          <rect id="Rectangle_224" data-name="Rectangle 224" width="10.143" height="2.998" transform="translate(0 13.375)" fill="#1ae5ff"/>
          <rect id="Rectangle_225" data-name="Rectangle 225" width="10.143" height="2.998" transform="translate(0 48.15)" fill="#1ae5ff"/>
        </g>
        <g id="Group_411" data-name="Group 411" transform="translate(153.936 201.69)">
          <rect id="Rectangle_226" data-name="Rectangle 226" width="14.779" height="2.998" fill="#1ae5ff"/>
          <rect id="Rectangle_227" data-name="Rectangle 227" width="14.779" height="2.998" transform="translate(0 6.688)" fill="#fff"/>
          <rect id="Rectangle_228" data-name="Rectangle 228" width="14.779" height="2.998" transform="translate(0 13.375)" fill="#fff"/>
        </g>
        <rect id="Rectangle_229" data-name="Rectangle 229" width="44.048" height="44.048" transform="translate(24.401 266.747)" fill="#289df2"/>
        <rect id="Rectangle_230" data-name="Rectangle 230" width="44.048" height="44.048" transform="translate(1.218 277.18)" fill="none" stroke="#289df2" stroke-miterlimit="10" stroke-width="1.128"/>
        <rect id="Rectangle_231" data-name="Rectangle 231" width="18.546" height="18.546" transform="translate(548.338 394.254)" fill="none" stroke="#289df2" stroke-miterlimit="10" stroke-width="1.128"/>
        <g id="Group_412" data-name="Group 412" transform="translate(316.652 354.988)">
          <path id="Path_802" data-name="Path 802" d="M785.4,464.559H801.05l8.694,8.694h90.414l13.91-13.91h48.685" transform="translate(-776.273 -454.561)" fill="none" stroke="#fff" stroke-miterlimit="10" stroke-width="1.128"/>
          <circle id="Ellipse_7" data-name="Ellipse 7" cx="4.564" cy="4.564" r="4.564" transform="translate(0 5.651)" fill="none" stroke="#fff" stroke-miterlimit="10" stroke-width="1.128"/>
          <circle id="Ellipse_8" data-name="Ellipse 8" cx="4.564" cy="4.564" r="4.564" transform="translate(186.624)" fill="none" stroke="#fff" stroke-miterlimit="10" stroke-width="1.128"/>
        </g>
        <path id="Path_803" data-name="Path 803" d="M947.342,305.58a5.8,5.8,0,1,1-5.8-5.8A5.8,5.8,0,0,1,947.342,305.58Z" transform="translate(-378.139 -186.045)" fill="#289df2"/>
        <path id="Path_804" data-name="Path 804" d="M600.035,452.17a5.8,5.8,0,1,1-5.795-5.795A5.795,5.795,0,0,1,600.035,452.17Z" transform="translate(-566.362 -106.601)" fill="#fecb00"/>
        <path id="Path_805" data-name="Path 805" d="M620.382,467.606a10.143,10.143,0,1,1-10.143-10.143A10.141,10.141,0,0,1,620.382,467.606Z" transform="translate(-560.047 -100.591)" fill="#fecb00"/>
        <g id="Group_413" data-name="Group 413" transform="translate(365.192 401.209)">
          <rect id="Rectangle_232" data-name="Rectangle 232" width="40.57" height="9.273" fill="none" stroke="#289df2" stroke-miterlimit="10" stroke-width="1.128"/>
          <rect id="Rectangle_233" data-name="Rectangle 233" width="88.965" height="9.273" transform="translate(0 17.387)" fill="none" stroke="#289df2" stroke-miterlimit="10" stroke-width="1.128"/>
        </g>
        <g id="Group_414" data-name="Group 414" transform="translate(106.821 410.09)">
          <line id="Line_21" data-name="Line 21" x1="9.833" y2="9.833" fill="none" stroke="#289df2" stroke-linecap="round" stroke-linejoin="round" stroke-width="1.128"/>
          <line id="Line_22" data-name="Line 22" x1="9.833" y2="9.833" transform="translate(9.455)" fill="none" stroke="#289df2" stroke-linecap="round" stroke-linejoin="round" stroke-width="1.128"/>
          <line id="Line_23" data-name="Line 23" x1="9.833" y2="9.833" transform="translate(18.909)" fill="none" stroke="#289df2" stroke-linecap="round" stroke-linejoin="round" stroke-width="1.128"/>
          <line id="Line_24" data-name="Line 24" x1="9.833" y2="9.833" transform="translate(28.364)" fill="none" stroke="#289df2" stroke-linecap="round" stroke-linejoin="round" stroke-width="1.128"/>
          <line id="Line_25" data-name="Line 25" x1="9.833" y2="9.833" transform="translate(37.819)" fill="none" stroke="#289df2" stroke-linecap="round" stroke-linejoin="round" stroke-width="1.128"/>
        </g>
      </g>
    </g>
  </g>
</svg>
