<svg xmlns="http://www.w3.org/2000/svg" xmlns:xlink="http://www.w3.org/1999/xlink" width="1920" height="616" viewBox="0 0 1920 616">
  <defs>
    <filter id="Rectangle_11" x="-9" y="-6" width="1938" height="619" filterUnits="userSpaceOnUse">
      <feOffset dy="3" input="SourceAlpha"/>
      <feGaussianBlur stdDeviation="3" result="blur"/>
      <feFlood flood-opacity="0.09"/>
      <feComposite operator="in" in2="blur"/>
      <feComposite in="SourceGraphic"/>
    </filter>
    <linearGradient id="linear-gradient" x1="-1.28" y1="-1.221" x2="2.447" y2="2.382" gradientUnits="objectBoundingBox">
      <stop offset="0.072" stop-color="#9ed7c4"/>
      <stop offset="0.973" stop-color="#729dae"/>
    </linearGradient>
    <linearGradient id="linear-gradient-2" x1="-182.216" y1="-17.865" x2="-181.293" y2="-16.973" xlink:href="#linear-gradient"/>
    <linearGradient id="linear-gradient-3" x1="-213.598" y1="-49.65" x2="-212.675" y2="-48.758" xlink:href="#linear-gradient"/>
    <linearGradient id="linear-gradient-4" x1="-1.281" y1="-1.221" x2="2.448" y2="2.383" xlink:href="#linear-gradient"/>
    <linearGradient id="linear-gradient-5" x1="-1.281" y1="-1.221" x2="2.448" y2="2.383" xlink:href="#linear-gradient"/>
    <linearGradient id="linear-gradient-6" x1="-1.28" y1="-1.221" x2="2.447" y2="2.383" xlink:href="#linear-gradient"/>
    <linearGradient id="linear-gradient-7" x1="-1.281" y1="-1.221" x2="2.448" y2="2.383" xlink:href="#linear-gradient"/>
    <linearGradient id="linear-gradient-8" x1="0" y1="0.5" x2="1" y2="0.5" xlink:href="#linear-gradient"/>
    <filter id="Rectangle_135" x="1159.691" y="435.572" width="109.213" height="81.952" filterUnits="userSpaceOnUse">
      <feOffset dy="6" input="SourceAlpha"/>
      <feGaussianBlur stdDeviation="3.5" result="blur-2"/>
      <feFlood flood-color="#191f49" flood-opacity="0.451"/>
      <feComposite operator="in" in2="blur-2"/>
      <feComposite in="SourceGraphic"/>
    </filter>
    <filter id="Path_757" x="1351.537" y="251.156" width="140.334" height="127.35" filterUnits="userSpaceOnUse">
      <feOffset dy="6" input="SourceAlpha"/>
      <feGaussianBlur stdDeviation="3.5" result="blur-3"/>
      <feFlood flood-color="#191f49" flood-opacity="0.451"/>
      <feComposite operator="in" in2="blur-3"/>
      <feComposite in="SourceGraphic"/>
    </filter>
    <filter id="Rectangle_136" x="1133.617" y="139.806" width="132.119" height="99.501" filterUnits="userSpaceOnUse">
      <feOffset dy="6" input="SourceAlpha"/>
      <feGaussianBlur stdDeviation="3.5" result="blur-4"/>
      <feFlood flood-color="#191f49" flood-opacity="0.451"/>
      <feComposite operator="in" in2="blur-4"/>
      <feComposite in="SourceGraphic"/>
    </filter>
    <filter id="Rectangle_137" x="1046.801" y="265.182" width="228.559" height="88.981" filterUnits="userSpaceOnUse">
      <feOffset dy="6" input="SourceAlpha"/>
      <feGaussianBlur stdDeviation="3.5" result="blur-5"/>
      <feFlood flood-color="#191f49" flood-opacity="0.451"/>
      <feComposite operator="in" in2="blur-5"/>
      <feComposite in="SourceGraphic"/>
    </filter>
    <clipPath id="clip-carousel-3">
      <rect width="1920" height="616"/>
    </clipPath>
  </defs>
  <g id="carousel-3" clip-path="url(#clip-carousel-3)">
    <rect width="1920" height="616" fill="rgba(255,255,255,0)"/>
    <g transform="matrix(1, 0, 0, 1, 0, 0)" filter="url(#Rectangle_11)">
      <rect id="Rectangle_11-2" data-name="Rectangle 11" width="1920" height="601" fill="#fff"/>
    </g>
    <path id="Path_2" data-name="Path 2" d="M186.585,0,249,35.765,1.826,177.257V0Z" transform="translate(-2 1)" fill="#6bb6f7" opacity="0.5"/>
    <path id="Path_3" data-name="Path 3" d="M208.144,600H1.826V481.341Z" transform="translate(-2 1)" fill="#0e47a2" opacity="0.6"/>
    <path id="Path_4" data-name="Path 4" d="M1735.24,0l-62.415,35.765L1920,177.257V0Z" transform="translate(0.175 0)" fill="#6bb6f7" opacity="0.5"/>
    <path id="Path_5" data-name="Path 5" d="M1713.681,600H1920V481.341Z" transform="translate(0.175 1)" fill="#0e47a2" opacity="0.6"/>
    <g id="Group_381" data-name="Group 381" transform="translate(-120.465 -457.288)">
      <path id="Path_661" data-name="Path 661" d="M1178.473,707.458a.554.554,0,1,1-.554-.555A.555.555,0,0,1,1178.473,707.458Z" transform="translate(2.351 148.538)" fill="url(#linear-gradient)"/>
      <path id="Path_662" data-name="Path 662" d="M1234.049,485.621a6.332,6.332,0,1,1,6.333,6.331A6.334,6.334,0,0,1,1234.049,485.621Z" transform="translate(39.343)" fill="url(#linear-gradient-2)"/>
      <path id="Path_663" data-name="Path 663" d="M1191.079,529.356a2.971,2.971,0,1,1-2.971-2.971A2.971,2.971,0,0,1,1191.079,529.356Z" transform="translate(7.423 30.735)" fill="#fff" opacity="0.1"/>
      <path id="Path_664" data-name="Path 664" d="M1463.895,1010.993h-8.374a.207.207,0,0,1,0-.413h8.374a.207.207,0,1,1,0,.413Zm-16.636,0H1439a.207.207,0,1,1,0-.413h8.261a.207.207,0,0,1,0,.413Zm-16.524,0h-8.261a.207.207,0,0,1,0-.413h8.261a.207.207,0,0,1,0,.413Zm-16.524,0h-8.261a.207.207,0,0,1,0-.413h8.261a.207.207,0,0,1,0,.413Zm-16.524,0h-8.261a.207.207,0,1,1,0-.413h8.261a.207.207,0,0,1,0,.413Zm-16.524,0H1372.9a.207.207,0,0,1,0-.413h8.261a.207.207,0,0,1,0,.413Zm-16.524,0h-8.261a.207.207,0,1,1,0-.413h8.261a.207.207,0,1,1,0,.413Zm-16.524,0h-8.261a.207.207,0,1,1,0-.413h8.261a.207.207,0,0,1,0,.413Zm-16.524,0h-8.261a.207.207,0,0,1,0-.413h8.261a.207.207,0,0,1,0,.413Zm-16.524,0H1306.8a.207.207,0,0,1,0-.413h8.261a.207.207,0,1,1,0,.413Zm-16.524,0h-8.261a.207.207,0,0,1,0-.413h8.261a.207.207,0,0,1,0,.413Zm-16.524,0h-8.261a.207.207,0,0,1,0-.413h8.261a.207.207,0,0,1,0,.413Zm-16.516-.19-.025,0a28.338,28.338,0,0,1-8.008-2.144.2.2,0,0,1-.106-.271.2.2,0,0,1,.271-.107,27.907,27.907,0,0,0,7.891,2.112.206.206,0,0,1-.023.411Zm206.54-1.006a.206.206,0,0,1-.057-.4,29.417,29.417,0,0,0,7.446-3.38.207.207,0,0,1,.223.349,29.9,29.9,0,0,1-7.554,3.429A.335.335,0,0,1,1472.04,1009.8Zm-221.477-5.473a.21.21,0,0,1-.134-.049A27.45,27.45,0,0,1,1245,998.01a.206.206,0,0,1,.065-.284.2.2,0,0,1,.284.064,27.077,27.077,0,0,0,5.353,6.169.206.206,0,0,1,.021.291A.2.2,0,0,1,1250.563,1004.323Zm235.237-3.279a.2.2,0,0,1-.135-.051.206.206,0,0,1-.02-.291,23.921,23.921,0,0,0,4.292-6.931.213.213,0,0,1,.268-.116.205.205,0,0,1,.117.268,24.39,24.39,0,0,1-4.366,7.052A.2.2,0,0,1,1485.8,1001.044ZM1241.92,990.55a.208.208,0,0,1-.2-.155,26.591,26.591,0,0,1-.815-6.536v-1.707a.207.207,0,1,1,.413,0v1.707a26.151,26.151,0,0,0,.8,6.433.206.206,0,0,1-.149.251A.177.177,0,0,1,1241.92,990.55Zm249.565-4.583a.2.2,0,0,1-.207-.207V977.5a.207.207,0,0,1,.413,0v8.261A.206.206,0,0,1,1491.484,985.968ZM1241.111,974.1a.205.205,0,0,1-.207-.206v-8.261a.207.207,0,0,1,.413,0v8.261A.207.207,0,0,1,1241.111,974.1Zm250.373-4.652a.2.2,0,0,1-.207-.207v-8.261a.207.207,0,0,1,.413,0v8.261A.206.206,0,0,1,1491.484,969.444Zm-250.373-11.872a.205.205,0,0,1-.207-.207V949.1a.207.207,0,1,1,.413,0v8.261A.207.207,0,0,1,1241.111,957.571Zm250.373-4.65a.2.2,0,0,1-.207-.206v-8.263a.207.207,0,0,1,.413,0v8.263A.206.206,0,0,1,1491.484,952.921Zm-250.373-11.874a.205.205,0,0,1-.207-.207v-8.261a.207.207,0,0,1,.413,0v8.261A.207.207,0,0,1,1241.111,941.047Zm250.373-4.65a.2.2,0,0,1-.207-.206v-8.263a.207.207,0,0,1,.413,0v8.263A.206.206,0,0,1,1491.484,936.4Zm-250.373-11.874a.205.205,0,0,1-.207-.207v-8.261a.207.207,0,0,1,.413,0v8.261A.207.207,0,0,1,1241.111,924.523Zm250.373-4.65a.2.2,0,0,1-.207-.207V911.4a.207.207,0,0,1,.413,0v8.263A.206.206,0,0,1,1491.484,919.873ZM1241.111,908a.205.205,0,0,1-.207-.207v-8.261a.207.207,0,0,1,.413,0v8.261A.207.207,0,0,1,1241.111,908Zm250.373-4.65a.2.2,0,0,1-.207-.207v-8.263a.207.207,0,0,1,.413,0v8.263A.206.206,0,0,1,1491.484,903.349Zm-250.373-11.874a.205.205,0,0,1-.207-.207v-8.261a.207.207,0,0,1,.413,0v8.261A.207.207,0,0,1,1241.111,891.475Zm250.373-4.65a.2.2,0,0,1-.207-.207v-8.263a.207.207,0,0,1,.413,0v8.263A.206.206,0,0,1,1491.484,886.824Zm-250.373-11.874a.206.206,0,0,1-.207-.207v-8.261a.207.207,0,0,1,.413,0v8.261A.207.207,0,0,1,1241.111,874.951Zm250.373-4.65a.2.2,0,0,1-.207-.207v-8.263a.207.207,0,0,1,.413,0v8.263A.206.206,0,0,1,1491.484,870.3Zm-250.373-11.874a.205.205,0,0,1-.207-.207v-8.261a.207.207,0,0,1,.413,0v8.261A.207.207,0,0,1,1241.111,858.426Zm250.373-4.65a.2.2,0,0,1-.207-.207v-8.263a.207.207,0,0,1,.413,0v8.263A.206.206,0,0,1,1491.484,853.776ZM1241.111,841.9a.205.205,0,0,1-.207-.207v-8.261a.207.207,0,1,1,.413,0V841.7A.207.207,0,0,1,1241.111,841.9Zm250.373-4.65a.2.2,0,0,1-.207-.207v-8.263a.207.207,0,0,1,.413,0v8.263A.206.206,0,0,1,1491.484,837.252Zm-250.373-11.874a.205.205,0,0,1-.207-.206V816.91a.207.207,0,0,1,.413,0v8.261A.207.207,0,0,1,1241.111,825.378Zm250.373-4.65a.2.2,0,0,1-.207-.207v-8.263a.207.207,0,0,1,.413,0v8.263A.206.206,0,0,1,1491.484,820.728Zm-250.373-11.874a.206.206,0,0,1-.207-.207v-8.261a.207.207,0,1,1,.413,0v8.261A.207.207,0,0,1,1241.111,808.854Zm250.373-4.65a.2.2,0,0,1-.207-.207v-8.263a.207.207,0,0,1,.413,0V804A.206.206,0,0,1,1491.484,804.2ZM1241.111,792.33a.205.205,0,0,1-.207-.207v-8.261a.207.207,0,0,1,.413,0v8.261A.207.207,0,0,1,1241.111,792.33Zm250.373-4.65a.206.206,0,0,1-.207-.206V779.21a.207.207,0,0,1,.413,0v8.263A.207.207,0,0,1,1491.484,787.679Zm-250.373-11.874a.205.205,0,0,1-.207-.207v-8.261a.207.207,0,0,1,.413,0V775.6A.207.207,0,0,1,1241.111,775.805Zm250.373-4.65a.205.205,0,0,1-.207-.207v-8.263a.207.207,0,0,1,.413,0v8.263A.207.207,0,0,1,1491.484,771.155Zm-250.373-11.874a.205.205,0,0,1-.207-.207v-8.261a.207.207,0,1,1,.413,0v8.261A.207.207,0,0,1,1241.111,759.281Zm250.373-4.65a.206.206,0,0,1-.207-.207v-8.263a.207.207,0,0,1,.413,0v8.263A.207.207,0,0,1,1491.484,754.631Zm-250.373-11.874a.205.205,0,0,1-.207-.207v-8.261a.207.207,0,0,1,.413,0v8.261A.207.207,0,0,1,1241.111,742.757Zm250.373-4.65a.206.206,0,0,1-.207-.207v-8.263a.207.207,0,0,1,.413,0V737.9A.207.207,0,0,1,1491.484,738.107Zm-250.373-11.874a.205.205,0,0,1-.207-.207v-8.261a.207.207,0,0,1,.413,0v8.261A.207.207,0,0,1,1241.111,726.233Zm250.373-4.65a.207.207,0,0,1-.207-.207v-8.263a.207.207,0,0,1,.413,0v8.263A.208.208,0,0,1,1491.484,721.582Zm-250.373-11.874a.205.205,0,0,1-.207-.207v-8.263a.207.207,0,0,1,.413,0V709.5A.207.207,0,0,1,1241.111,709.709Zm250.373-4.65a.207.207,0,0,1-.207-.207v-8.263a.207.207,0,0,1,.413,0v8.263A.208.208,0,0,1,1491.484,705.058Zm-250.373-11.874a.206.206,0,0,1-.207-.207v-8.263a.207.207,0,1,1,.413,0v8.263A.207.207,0,0,1,1241.111,693.185Zm250.373-4.65a.207.207,0,0,1-.207-.207v-8.263a.207.207,0,0,1,.413,0v8.263A.208.208,0,0,1,1491.484,688.534ZM1241.111,676.66a.205.205,0,0,1-.207-.207v-8.263a.207.207,0,0,1,.413,0v8.263A.207.207,0,0,1,1241.111,676.66Zm250.373-4.65a.206.206,0,0,1-.207-.207V663.54a.207.207,0,0,1,.413,0V671.8A.207.207,0,0,1,1491.484,672.01Zm-250.373-11.874a.206.206,0,0,1-.207-.207v-8.263a.207.207,0,0,1,.413,0v8.263A.207.207,0,0,1,1241.111,660.136Zm250.373-4.651a.205.205,0,0,1-.207-.207v-8.263a.207.207,0,0,1,.413,0v8.263A.207.207,0,0,1,1491.484,655.486Zm-250.373-11.874a.205.205,0,0,1-.207-.206v-8.263a.207.207,0,0,1,.413,0v8.263A.207.207,0,0,1,1241.111,643.612Zm250.373-4.65a.206.206,0,0,1-.207-.207v-8.263a.207.207,0,0,1,.413,0v8.263A.207.207,0,0,1,1491.484,638.961Zm-250.373-11.874a.205.205,0,0,1-.207-.207v-8.263a.207.207,0,1,1,.413,0v8.263A.207.207,0,0,1,1241.111,627.088Zm250.373-4.65a.206.206,0,0,1-.207-.207v-8.263a.207.207,0,0,1,.413,0v8.263A.207.207,0,0,1,1491.484,622.437Zm-250.373-11.874a.205.205,0,0,1-.207-.207v-8.263a.207.207,0,0,1,.413,0v8.263A.207.207,0,0,1,1241.111,610.564Zm250.373-4.65a.206.206,0,0,1-.207-.206v-8.263a.207.207,0,0,1,.413,0v8.263A.207.207,0,0,1,1491.484,605.913Zm-250.373-11.874a.206.206,0,0,1-.207-.207V585.57a.207.207,0,0,1,.413,0v8.263A.207.207,0,0,1,1241.111,594.039Zm250.373-4.65a.206.206,0,0,1-.207-.207V580.92a.207.207,0,0,1,.413,0v8.263A.207.207,0,0,1,1491.484,589.389Zm-250.373-11.874a.206.206,0,0,1-.207-.207v-8.263a.207.207,0,1,1,.413,0v8.263A.207.207,0,0,1,1241.111,577.515Zm250.373-4.65a.206.206,0,0,1-.207-.207V564.4a.207.207,0,0,1,.413,0v8.263A.207.207,0,0,1,1491.484,572.865Zm-250.373-11.874a.205.205,0,0,1-.207-.207v-8.263a.207.207,0,0,1,.413,0v8.263A.207.207,0,0,1,1241.111,560.991Zm250.373-4.65a.206.206,0,0,1-.207-.207V549q0-.568-.016-1.127a.207.207,0,0,1,.2-.213h0a.208.208,0,0,1,.208.2c.011.378.016.757.016,1.14v7.129A.207.207,0,0,1,1491.484,556.341Zm-250.327-11.872h-.013a.209.209,0,0,1-.193-.22,26.462,26.462,0,0,1,1.785-8.1.208.208,0,0,1,.268-.116.205.205,0,0,1,.117.268,25.982,25.982,0,0,0-1.757,7.969A.208.208,0,0,1,1241.158,544.469Zm249.134-4.545a.209.209,0,0,1-.2-.154,30.11,30.11,0,0,0-3.168-7.537.207.207,0,0,1,.355-.212,30.584,30.584,0,0,1,3.212,7.642.206.206,0,0,1-.147.253A.2.2,0,0,1,1490.291,539.924Zm-243.2-10.586a.207.207,0,0,1-.16-.337,27.727,27.727,0,0,1,6.143-5.567.207.207,0,1,1,.23.344,27.265,27.265,0,0,0-6.052,5.487A.208.208,0,0,1,1247.089,529.338Zm234.8-3.375a.211.211,0,0,1-.139-.053,26.134,26.134,0,0,0-6.838-4.452.207.207,0,0,1,.169-.378,26.6,26.6,0,0,1,6.948,4.523.207.207,0,0,1-.139.36Zm-221.255-5.65a.207.207,0,0,1-.06-.4,28.578,28.578,0,0,1,8.205-1.2.207.207,0,0,1,0,.413,28.153,28.153,0,0,0-8.086,1.183A.177.177,0,0,1,1260.635,520.313Zm206.427-1-.023,0a28.479,28.479,0,0,0-3.257-.187h-4.974a.207.207,0,1,1,0-.413h4.974a28.58,28.58,0,0,1,3.305.19.207.207,0,0,1-.025.412Zm-16.517-.188h-8.261a.207.207,0,1,1,0-.413h8.261a.207.207,0,0,1,0,.413Zm-16.524,0h-8.261a.207.207,0,1,1,0-.413h8.261a.207.207,0,1,1,0,.413Zm-16.522,0h-8.263a.207.207,0,0,1,0-.413h8.263a.207.207,0,0,1,0,.413Zm-16.524,0h-8.263a.207.207,0,0,1,0-.413h8.263a.207.207,0,0,1,0,.413Zm-16.524,0h-8.263a.207.207,0,0,1,0-.413h8.263a.207.207,0,1,1,0,.413Zm-16.524,0h-8.263a.207.207,0,0,1,0-.413h8.263a.207.207,0,0,1,0,.413Zm-16.524,0h-8.263a.207.207,0,1,1,0-.413h8.263a.207.207,0,1,1,0,.413Zm-16.524,0h-8.263a.207.207,0,1,1,0-.413h8.263a.207.207,0,1,1,0,.413Zm-16.524,0h-8.263a.207.207,0,0,1,0-.413h8.263a.207.207,0,0,1,0,.413Zm-16.524,0h-8.263a.207.207,0,1,1,0-.413h8.263a.207.207,0,0,1,0,.413Zm-16.524,0h-8.263a.207.207,0,0,1,0-.413h8.263a.207.207,0,0,1,0,.413Z" transform="translate(43.817 25.725)" fill="#4738b3"/>
      <g id="Group_266" data-name="Group 266" transform="translate(1481.995 866.762)">
        <path id="Path_665" data-name="Path 665" d="M1382.125,728.851a13.412,13.412,0,0,0,.775-7.8,9.466,9.466,0,0,0-5.535-6.45c-4-1.783-8.95-.64-12.193,2.3a16.106,16.106,0,0,0-4.9,11.778,21.947,21.947,0,0,0,3.808,11.978c2.261,3.614,6.077,8.582,8.731,12.061" transform="translate(-1360.277 -713.754)" fill="#d06288"/>
        <path id="Path_666" data-name="Path 666" d="M1376.957,726.139a11.884,11.884,0,0,1,4.269-6.561,9.467,9.467,0,0,1,8.413-1.211c4.182,1.287,7.159,5.41,7.664,9.757a16.1,16.1,0,0,1-4.069,12.09,21.936,21.936,0,0,1-10.75,6.51c-4.08,1.235-10.334,2.419-14.621,3.292" transform="translate(-1355.326 -711.048)" fill="#d06288"/>
      </g>
      <path id="Path_667" data-name="Path 667" d="M1426.643,680.857a6.331,6.331,0,1,1,6.331,6.331A6.332,6.332,0,0,1,1426.643,680.857Z" transform="translate(165.026 127.408)" fill="url(#linear-gradient-3)"/>
      <path id="Path_668" data-name="Path 668" d="M1465.048,611.363a1.568,1.568,0,1,1-1.568-1.568A1.567,1.567,0,0,1,1465.048,611.363Z" transform="translate(188.043 85.167)" fill="url(#linear-gradient-4)"/>
      <path id="Path_669" data-name="Path 669" d="M1209.2,506.695a1.567,1.567,0,1,1-1.567-1.567A1.568,1.568,0,0,1,1209.2,506.695Z" transform="translate(21.083 16.863)" fill="url(#linear-gradient-5)"/>
      <path id="Path_670" data-name="Path 670" d="M1453.761,705.76a5.244,5.244,0,1,1-5.243-5.244A5.243,5.243,0,0,1,1453.761,705.76Z" transform="translate(175.879 144.37)" opacity="0.47" fill="url(#linear-gradient-6)"/>
      <path id="Path_671" data-name="Path 671" d="M1225.068,788.729a5.243,5.243,0,1,1-5.244-5.245A5.242,5.242,0,0,1,1225.068,788.729Z" transform="translate(26.639 198.513)" opacity="0.47" fill="url(#linear-gradient-7)"/>
      <g id="Group_366" data-name="Group 366" transform="translate(1301.61 557.065)">
        <text id="LOREM_IPSUM" data-name="LOREM IPSUM" transform="translate(45.842 35.339)" fill="#fff" font-size="5" font-family="Montserrat-Bold, Montserrat" letter-spacing="0.1em" font-weight="700"><tspan x="0" y="0">LOREM</tspan><tspan y="0" xml:space="preserve" font-family="Montserrat-Regular, Montserrat" font-weight="400"> IPSUM</tspan></text>
        <g id="Group_365" data-name="Group 365">
          <g id="Group_282" data-name="Group 282">
            <g id="Group_275" data-name="Group 275">
              <g id="Group_267" data-name="Group 267">
                <path id="Path_672" data-name="Path 672" d="M1282.209,997.064a27.57,27.57,0,0,1-27.558-27.334l-3.525-414.187a27.6,27.6,0,0,1,27.335-27.8l163.118-1.388c.078,0,.159,0,.236,0a27.6,27.6,0,0,1,27.567,27.335l3.523,414.185a27.6,27.6,0,0,1-27.334,27.8l-163.118,1.386Zm159.607-469.886c-.078,0-.154,0-.231,0l-163.116,1.388a26.776,26.776,0,0,0-26.516,26.97l3.525,414.185a26.744,26.744,0,0,0,26.732,26.514l.238,0,163.118-1.386a26.775,26.775,0,0,0,26.514-26.97l-3.523-414.185A26.779,26.779,0,0,0,1441.815,527.178Z" transform="translate(-1251.124 -526.352)" fill="#4738b3"/>
              </g>
              <g id="Group_268" data-name="Group 268" transform="translate(3.798 18.554)">
                <path id="Path_673" data-name="Path 673" d="M1271.427,971.807a14.589,14.589,0,0,1-14.571-14.448l-3.433-403.549a14.59,14.59,0,0,1,14.449-14.7l180.12-1.534h.124a14.591,14.591,0,0,1,14.571,14.45l3.434,403.549a14.592,14.592,0,0,1-14.449,14.7l-180.118,1.53Zm176.689-433.4H1448l-180.12,1.534A13.762,13.762,0,0,0,1254.25,553.8l3.432,403.549a13.764,13.764,0,0,0,13.745,13.629h.121l180.118-1.53a13.766,13.766,0,0,0,13.629-13.865l-3.434-403.549A13.762,13.762,0,0,0,1448.115,538.405Z" transform="translate(-1253.423 -537.579)" fill="#4738b3"/>
              </g>
              <g id="Group_269" data-name="Group 269" transform="translate(89.821 7.546)">
                <path id="Path_674" data-name="Path 674" d="M1307.973,536.173a2.5,2.5,0,0,1-.022-4.994l30.786-.261a2.6,2.6,0,0,1,1.77.717,2.495,2.495,0,0,1-1.728,4.275l-30.786.263Zm30.786-4.429h-.015l-30.786.261a1.671,1.671,0,0,0,.015,3.342h.015l30.784-.263a1.67,1.67,0,0,0-.013-3.34Z" transform="translate(-1305.476 -530.918)" fill="#4738b3"/>
              </g>
              <g id="Group_270" data-name="Group 270" transform="translate(149.152 5.728)">
                <path id="Path_675" data-name="Path 675" d="M1345.437,537.935a4.059,4.059,0,0,1-.035-8.117h.035a4.054,4.054,0,0,1,4.059,4.024h0a4.057,4.057,0,0,1-4.023,4.093Zm0-7.291h-.026a3.233,3.233,0,0,0,.026,6.465h.03a3.23,3.23,0,0,0,3.2-3.259v0a3.228,3.228,0,0,0-3.233-3.2Z" transform="translate(-1341.378 -529.818)" fill="#4738b3"/>
              </g>
              <g id="Group_271" data-name="Group 271" transform="translate(44.356 6.619)">
                <path id="Path_676" data-name="Path 676" d="M1282.024,538.474a4.059,4.059,0,0,1-.033-8.117h.033a4.063,4.063,0,0,1,4.058,4.024,4.057,4.057,0,0,1-4.024,4.093Zm0-7.291H1282a3.232,3.232,0,0,0,.026,6.465h.028a3.232,3.232,0,0,0-.028-6.465Z" transform="translate(-1277.965 -530.357)" fill="#4738b3"/>
              </g>
              <g id="Group_272" data-name="Group 272" transform="translate(166.745 7.152)">
                <path id="Path_677" data-name="Path 677" d="M1354.519,535.674a2.5,2.5,0,0,1-.022-4.994h.022a2.5,2.5,0,0,1,.02,4.994Zm0-4.168h-.015a1.671,1.671,0,0,0,.015,3.342h.013a1.671,1.671,0,0,0-.013-3.342Z" transform="translate(-1352.024 -530.68)" fill="#4738b3"/>
              </g>
              <g id="Group_273" data-name="Group 273" transform="translate(59.112 8.07)">
                <path id="Path_678" data-name="Path 678" d="M1289.391,536.227a2.5,2.5,0,0,1-.022-4.992h.022a2.5,2.5,0,0,1,.02,4.992Zm0-4.166h-.015a1.67,1.67,0,0,0,.015,3.34h.015a1.67,1.67,0,0,0-.015-3.34Z" transform="translate(-1286.894 -531.235)" fill="#4738b3"/>
              </g>
              <g id="Group_274" data-name="Group 274" transform="translate(32.031 8.299)">
                <path id="Path_679" data-name="Path 679" d="M1273,536.366a2.5,2.5,0,0,1-.02-4.992,2.632,2.632,0,0,1,1.772.717,2.481,2.481,0,0,1,.745,1.758h0a2.5,2.5,0,0,1-2.475,2.517Zm0-4.166h-.015a1.67,1.67,0,0,0-1.157,2.861,1.619,1.619,0,0,0,1.185.479,1.67,1.67,0,0,0-.013-3.34Z" transform="translate(-1270.507 -531.374)" fill="#4738b3"/>
              </g>
            </g>
            <g id="Group_281" data-name="Group 281" transform="translate(43.036 426.324)">
              <g id="Group_276" data-name="Group 276" transform="translate(70.003)">
                <path id="Path_680" data-name="Path 680" d="M1330.377,796.948h-.007l-9.086-.016a1.763,1.763,0,0,1-1.758-1.762l.018-9.088a1.76,1.76,0,0,1,1.759-1.757h0l9.086.015a1.762,1.762,0,0,1,1.757,1.765l-.017,9.086a1.757,1.757,0,0,1-1.757,1.757Zm-9.074-11.8a.933.933,0,0,0-.932.932l-.018,9.086a.937.937,0,0,0,.933.935l9.089.017h0a.931.931,0,0,0,.93-.932l.017-9.086a.934.934,0,0,0-.932-.937l-9.086-.015Z" transform="translate(-1319.526 -784.326)" fill="#4738b3"/>
              </g>
              <g id="Group_279" data-name="Group 279" transform="translate(139.989 0.251)">
                <g id="Group_277" data-name="Group 277">
                  <path id="Path_681" data-name="Path 681" d="M1368.05,796.842l-6.175-6.194,6.2-6.17.584.584-5.61,5.589,5.589,5.607Z" transform="translate(-1361.875 -784.478)" fill="#4738b3"/>
                </g>
                <g id="Group_278" data-name="Group 278" transform="translate(0.586 5.758)">
                  <path id="Path_682" data-name="Path 682" d="M1373.473,788.808l-11.244-.019v-.826l11.244.019Z" transform="translate(-1362.23 -787.962)" fill="#4738b3"/>
                </g>
              </g>
              <g id="Group_280" data-name="Group 280" transform="translate(0 1.399)">
                <path id="Path_683" data-name="Path 683" d="M1278.28,796.383a1.119,1.119,0,0,1-1.114-1.114l.017-8.982a1.112,1.112,0,0,1,1.7-.942l7.205,4.5a1.114,1.114,0,0,1-.005,1.889l-7.22,4.479A1.125,1.125,0,0,1,1278.28,796.383ZM1278.3,786a.31.31,0,0,0-.14.036.282.282,0,0,0-.147.25l-.016,8.982a.285.285,0,0,0,.149.251.281.281,0,0,0,.288-.007l7.22-4.48a.275.275,0,0,0,.136-.241.279.279,0,0,0-.134-.243l-7.206-4.5A.279.279,0,0,0,1278.3,786Z" transform="translate(-1277.166 -785.172)" fill="#4738b3"/>
              </g>
            </g>
          </g>
          <g id="Group_325" data-name="Group 325" transform="translate(209.496 253.813)" opacity="0.15">
            <g id="Group_283" data-name="Group 283" transform="translate(0 0)">
              <rect id="Rectangle_125" data-name="Rectangle 125" width="6.325" height="4.957" transform="matrix(0.553, -0.833, 0.833, 0.553, 0, 5.272)" fill="#4738b3"/>
            </g>
            <g id="Group_284" data-name="Group 284" transform="translate(5.85 5.29)">
              <path id="Path_684" data-name="Path 684" d="M1381.436,683.139l0,.02a.035.035,0,0,0,.018.022l.008-.015,0,0-.01.013a.027.027,0,0,0,.041,0l-.017-.008h0c-.006-.008,0-.018-.02-.025l-.005.006Z" transform="translate(-1381.433 -683.139)" fill="#4738b3"/>
            </g>
            <g id="Group_285" data-name="Group 285" transform="translate(5.06 3.382)">
              <path id="Path_685" data-name="Path 685" d="M1380.955,682l.017.011h0c.008.007,0,.015.015.02l0,0,.02.012a.031.031,0,0,0-.013-.043l-.011.017h0l.011-.017-.018-.007A.024.024,0,0,0,1380.955,682Z" transform="translate(-1380.955 -681.984)" fill="#4738b3"/>
            </g>
            <g id="Group_286" data-name="Group 286" transform="translate(3.412 6.755)">
              <path id="Path_686" data-name="Path 686" d="M1379.958,684.05l.01.026.023.012a.041.041,0,0,0,.028.008l.008-.028,0-.01a.052.052,0,0,0-.03-.033l-.023.007Z" transform="translate(-1379.958 -684.025)" fill="#4738b3"/>
            </g>
            <g id="Group_287" data-name="Group 287" transform="translate(1.072 5.592)">
              <path id="Path_687" data-name="Path 687" d="M1378.547,683.332l-.005.015a.07.07,0,0,0,.036.04.031.031,0,0,0,.028-.01v-.023l0,.007,0-.027A.042.042,0,0,0,1378.547,683.332Z" transform="translate(-1378.542 -683.321)" fill="#4738b3"/>
            </g>
            <g id="Group_288" data-name="Group 288" transform="translate(1.922 4.796)">
              <path id="Path_688" data-name="Path 688" d="M1379.109,682.84h-.01a.056.056,0,0,0-.033.023.062.062,0,0,0,0,.061l.018.012h.031l.018-.012.005-.007a.048.048,0,0,0,0-.066l-.01,0Z" transform="translate(-1379.056 -682.84)" fill="#4738b3"/>
            </g>
            <g id="Group_289" data-name="Group 289" transform="translate(2.263 5.704)">
              <path id="Path_689" data-name="Path 689" d="M1379.3,683.392l-.028.005a.027.027,0,0,0,.013.045l.023-.008,0-.005c0-.005.015-.025,0-.04l-.011,0Z" transform="translate(-1379.262 -683.389)" fill="#4738b3"/>
            </g>
            <g id="Group_290" data-name="Group 290" transform="translate(2.295 6.746)">
              <path id="Path_690" data-name="Path 690" d="M1379.287,684.045l0-.007-.007.028a.038.038,0,0,0,.03.012.037.037,0,0,0,.025-.018l0,0-.007-.022-.008-.012-.03,0A.037.037,0,0,0,1379.287,684.045Z" transform="translate(-1379.282 -684.02)" fill="#4738b3"/>
            </g>
            <g id="Group_291" data-name="Group 291" transform="translate(0.79 4.137)">
              <path id="Path_691" data-name="Path 691" d="M1378.424,682.443l-.023,0-.012.007-.016.01,0,.026a.041.041,0,0,0,.036.012.033.033,0,0,0,.025-.013A.03.03,0,0,0,1378.424,682.443Z" transform="translate(-1378.371 -682.441)" fill="#4738b3"/>
            </g>
            <g id="Group_292" data-name="Group 292" transform="translate(1.156 4.794)">
              <path id="Path_692" data-name="Path 692" d="M1378.6,682.854a.03.03,0,0,0,.008.043h.023l0,0a.065.065,0,0,0,.018-.015l0-.008,0-.02a.03.03,0,0,0-.028-.012A.033.033,0,0,0,1378.6,682.854Z" transform="translate(-1378.593 -682.839)" fill="#4738b3"/>
            </g>
            <g id="Group_293" data-name="Group 293" transform="translate(5.764 4.011)">
              <path id="Path_693" data-name="Path 693" d="M1381.412,682.367a.042.042,0,0,0-.031.01l0,.028a.05.05,0,0,0,.061-.01.022.022,0,0,0,0-.026l-.026,0Z" transform="translate(-1381.381 -682.365)" fill="#4738b3"/>
            </g>
            <g id="Group_294" data-name="Group 294" transform="translate(4.244 3.05)">
              <path id="Path_694" data-name="Path 694" d="M1380.586,681.831h0a.066.066,0,0,0-.046-.045.068.068,0,0,0-.063.015l-.013.025,0,.021v.016l0,.007a.088.088,0,0,0,.039.069.07.07,0,0,0,.063.008l.028-.031,0-.025h.005A.067.067,0,0,0,1380.586,681.831Z" transform="translate(-1380.461 -681.783)" fill="#4738b3"/>
            </g>
            <g id="Group_295" data-name="Group 295" transform="translate(4.886 4.562)">
              <path id="Path_695" data-name="Path 695" d="M1380.9,682.7l-.008,0a.057.057,0,0,0-.031.02.05.05,0,0,0,.01.063l.015.007.033,0a.068.068,0,0,0,.03-.02l0-.008,0-.015-.007-.023-.008-.011-.013-.007-.008,0Z" transform="translate(-1380.85 -682.698)" fill="#4738b3"/>
            </g>
            <g id="Group_296" data-name="Group 296" transform="translate(3.118 2.065)">
              <path id="Path_696" data-name="Path 696" d="M1379.8,681.2l-.01.01a.065.065,0,0,0,0,.071l.008.007.016.008.013,0a.059.059,0,0,0,.04-.025.061.061,0,0,0,.007-.045.061.061,0,0,0-.033-.035l-.015,0Z" transform="translate(-1379.78 -681.187)" fill="#4738b3"/>
            </g>
            <g id="Group_297" data-name="Group 297" transform="translate(2.618 2.83)">
              <path id="Path_697" data-name="Path 697" d="M1379.506,681.652a.056.056,0,0,0-.023.013l-.006.013,0,.031a.053.053,0,0,0,.011.021l.016.007.031,0,.022-.01.007-.017,0-.031a.039.039,0,0,0-.013-.021l-.015-.007Z" transform="translate(-1379.477 -681.65)" fill="#4738b3"/>
            </g>
            <g id="Group_298" data-name="Group 298" transform="translate(5.095 4.102)">
              <path id="Path_698" data-name="Path 698" d="M1381,682.423l-.022.012-.007.017,0,.033a.055.055,0,0,0,.031.033h.012l.021-.007.012-.008.013-.018,0-.015,0-.025-.008-.013-.013-.008-.015,0Z" transform="translate(-1380.976 -682.42)" fill="#4738b3"/>
            </g>
            <g id="Group_299" data-name="Group 299" transform="translate(5.796 3.046)">
              <path id="Path_699" data-name="Path 699" d="M1381.441,681.788l-.007,0a.031.031,0,0,0-.035,0l0,.027.008.011.028,0,.008,0a.048.048,0,0,0,.023-.017.023.023,0,0,0,0-.03l-.033.007Z" transform="translate(-1381.4 -681.781)" fill="#4738b3"/>
            </g>
            <g id="Group_300" data-name="Group 300" transform="translate(3.468 1.311)">
              <path id="Path_700" data-name="Path 700" d="M1380,680.751a.034.034,0,0,0,.005.048l.026,0a.035.035,0,0,0,.021-.008v-.03a.036.036,0,0,0-.01-.02l-.016-.007A.046.046,0,0,0,1380,680.751Z" transform="translate(-1379.991 -680.731)" fill="#4738b3"/>
            </g>
            <g id="Group_301" data-name="Group 301" transform="translate(5.145 2.461)">
              <path id="Path_701" data-name="Path 701" d="M1381.021,681.483a.033.033,0,0,0,.045-.007l0-.021,0-.005a.043.043,0,0,0-.025-.023l-.018,0A.033.033,0,0,0,1381.021,681.483Z" transform="translate(-1381.006 -681.427)" fill="#4738b3"/>
            </g>
            <g id="Group_302" data-name="Group 302" transform="translate(4.336 2.58)">
              <path id="Path_702" data-name="Path 702" d="M1380.623,681.544l-.01-.018-.013-.013c-.028-.018-.05-.018-.068,0l-.007.016v.008l0,0a.043.043,0,0,0,.008.056l.008.005.015,0a.048.048,0,0,0,.059-.017.083.083,0,0,0,.01-.031Z" transform="translate(-1380.517 -681.499)" fill="#4738b3"/>
            </g>
            <g id="Group_303" data-name="Group 303" transform="translate(4.792 2.801)">
              <path id="Path_703" data-name="Path 703" d="M1380.8,681.646l-.008.017v.026l.008.017a.075.075,0,0,0,.059.021.047.047,0,0,0,.038-.025l0-.008,0-.017-.008-.021-.011-.011A.076.076,0,0,0,1380.8,681.646Z" transform="translate(-1380.793 -681.633)" fill="#4738b3"/>
            </g>
            <g id="Group_304" data-name="Group 304" transform="translate(4.885 1.666)">
              <path id="Path_704" data-name="Path 704" d="M1380.849,680.972a.272.272,0,0,1,.036.076h.033a.094.094,0,0,0-.017-.076.048.048,0,0,0-.036-.026Z" transform="translate(-1380.849 -680.946)" fill="#4738b3"/>
            </g>
            <g id="Group_305" data-name="Group 305" transform="translate(4.087 1.881)">
              <path id="Path_705" data-name="Path 705" d="M1380.368,681.086l0,.025,0,0a.044.044,0,0,0,.023.023l.02,0,.006-.01a.034.034,0,0,0,0-.049l-.028,0A.026.026,0,0,0,1380.368,681.086Z" transform="translate(-1380.366 -681.076)" fill="#4738b3"/>
            </g>
            <g id="Group_306" data-name="Group 306" transform="translate(3.612 4.981)">
              <path id="Path_706" data-name="Path 706" d="M1380.209,682.955v0a.072.072,0,0,0-.041.007l-.017,0-.023,0-.007,0a.093.093,0,0,0-.031.018l-.012.033,0,.025,0,.013a.068.068,0,0,0,.039.043l.03,0,.02,0,.007-.006.028,0,.025-.007.026-.023a.066.066,0,0,0-.008-.093l-.03-.01Z" transform="translate(-1380.079 -682.952)" fill="#4738b3"/>
            </g>
            <g id="Group_307" data-name="Group 307" transform="translate(2.769 4.978)">
              <path id="Path_707" data-name="Path 707" d="M1379.579,682.975a.044.044,0,0,0-.008.041.052.052,0,0,0,.025.028h.015l.011,0v0l.015,0,.016-.008.007-.012,0-.01,0-.018,0-.01a.044.044,0,0,0-.038-.028A.047.047,0,0,0,1379.579,682.975Z" transform="translate(-1379.568 -682.95)" fill="#4738b3"/>
            </g>
            <g id="Group_308" data-name="Group 308" transform="translate(2.509 4.133)">
              <path id="Path_708" data-name="Path 708" d="M1379.424,682.476a.114.114,0,0,0-.013.041l0,.02.007.018.015.017.031.021.03,0,.025,0,.026-.018.025-.038.007-.031-.005-.025-.018-.025A.093.093,0,0,0,1379.424,682.476Z" transform="translate(-1379.411 -682.438)" fill="#4738b3"/>
            </g>
            <g id="Group_309" data-name="Group 309" transform="translate(3.386 4.732)">
              <path id="Path_709" data-name="Path 709" d="M1380,682.8l-.021.007-.025.022a.092.092,0,0,0,0,.109l0,.007.02.018.02.008.028,0a.093.093,0,0,0,.048-.036.081.081,0,0,0,.01-.073.107.107,0,0,0-.061-.061Z" transform="translate(-1379.942 -682.801)" fill="#4738b3"/>
            </g>
            <g id="Group_310" data-name="Group 310" transform="translate(4.533 6.204)">
              <path id="Path_710" data-name="Path 710" d="M1380.637,683.742l0,.031.038.023.026-.013.006-.035a.078.078,0,0,0,.007-.041l-.018-.015a.052.052,0,0,0-.043.03A.037.037,0,0,1,1380.637,683.742Z" transform="translate(-1380.636 -683.692)" fill="#4738b3"/>
            </g>
            <g id="Group_311" data-name="Group 311" transform="translate(1.662 2.797)">
              <path id="Path_711" data-name="Path 711" d="M1378.939,681.658l0-.027-.039.034h.027Z" transform="translate(-1378.899 -681.63)" fill="#4738b3"/>
            </g>
            <g id="Group_312" data-name="Group 312" transform="translate(3.617 3.98)">
              <path id="Path_712" data-name="Path 712" d="M1380.219,682.41l-.005-.025-.018-.025-.013-.008-.028-.007-.028,0a.079.079,0,0,0-.031.017l-.013.031,0,.027,0,.013a.074.074,0,0,0,.041.043l.027,0,.022-.007.023-.016.013-.018Z" transform="translate(-1380.082 -682.346)" fill="#4738b3"/>
            </g>
            <g id="Group_313" data-name="Group 313" transform="translate(4.076 4.192)">
              <path id="Path_713" data-name="Path 713" d="M1380.463,682.486l-.015-.008-.025,0a.077.077,0,0,0-.048.033.1.1,0,0,0-.013.076l.018.025.018.013.03,0a.08.08,0,0,0,.058-.036.071.071,0,0,0-.005-.089Z" transform="translate(-1380.359 -682.474)" fill="#4738b3"/>
            </g>
            <g id="Group_314" data-name="Group 314" transform="translate(4.934 4.976)">
              <path id="Path_714" data-name="Path 714" d="M1380.879,682.992a.028.028,0,0,0,.013.02l.026-.01a.03.03,0,0,0,.028-.013l0-.01,0-.018a.04.04,0,0,0-.031-.012C1380.9,682.951,1380.874,682.972,1380.879,682.992Z" transform="translate(-1380.879 -682.949)" fill="#4738b3"/>
            </g>
            <g id="Group_315" data-name="Group 315" transform="translate(4.56 5.142)">
              <path id="Path_715" data-name="Path 715" d="M1380.662,683.074a.048.048,0,0,0,.033.076l.012,0,.016-.008.008-.007.012-.02,0-.01,0-.018,0-.011a.046.046,0,0,0-.04-.025A.048.048,0,0,0,1380.662,683.074Z" transform="translate(-1380.652 -683.049)" fill="#4738b3"/>
            </g>
            <g id="Group_316" data-name="Group 316" transform="translate(2.78 6.08)">
              <path id="Path_716" data-name="Path 716" d="M1379.586,683.624l-.005.007a.035.035,0,0,0,0,.028.03.03,0,0,0,.022.018h.008a.032.032,0,0,0,.021-.013.044.044,0,0,0-.005-.046l-.033,0Z" transform="translate(-1379.575 -683.617)" fill="#4738b3"/>
            </g>
            <g id="Group_317" data-name="Group 317" transform="translate(4.284 3.717)">
              <path id="Path_717" data-name="Path 717" d="M1380.52,682.2l-.015.011-.013.017a.129.129,0,0,0,0,.088l.013.021.015.012.021.007a.075.075,0,0,0,.073-.031.089.089,0,0,0,0-.093.085.085,0,0,0-.079-.04Z" transform="translate(-1380.485 -682.187)" fill="#4738b3"/>
            </g>
            <g id="Group_318" data-name="Group 318" transform="translate(2.089 3.438)">
              <path id="Path_718" data-name="Path 718" d="M1379.218,682.02l-.008,0-.023,0-.015.008-.005.008a.052.052,0,0,0-.008.041.084.084,0,0,0,.043.048l.015,0,.023,0,.012-.008,0,0a.066.066,0,0,0,.015-.053l0-.008-.007-.008-.005-.007a.053.053,0,0,0-.036-.015Z" transform="translate(-1379.157 -682.018)" fill="#4738b3"/>
            </g>
            <g id="Group_319" data-name="Group 319" transform="translate(3.348 3.674)">
              <path id="Path_719" data-name="Path 719" d="M1380,682.291a.079.079,0,0,0,.043-.018l.011-.035,0-.026-.017-.031-.02-.013-.035-.007-.023.007-.028.025a.068.068,0,0,0,.008.091l.03.012Z" transform="translate(-1379.919 -682.161)" fill="#4738b3"/>
            </g>
            <g id="Group_320" data-name="Group 320" transform="translate(6.032 1.71)">
              <path id="Path_720" data-name="Path 720" d="M1381.563,680.973a.031.031,0,0,0-.02.011l.016.012,0,.005c0,.008.022.007.023,0l0,0,.018.01a.026.026,0,0,0-.008-.033A.04.04,0,0,0,1381.563,680.973Z" transform="translate(-1381.543 -680.972)" fill="#4738b3"/>
            </g>
            <g id="Group_321" data-name="Group 321" transform="translate(3.66 2.76)">
              <path id="Path_721" data-name="Path 721" d="M1380.209,681.613l-.026-.005-.021.005-.023.011-.01.017a.093.093,0,0,0,0,.117l.018.012.018.007h.025a.093.093,0,0,0,.05-.038.094.094,0,0,0,.015-.073A.083.083,0,0,0,1380.209,681.613Z" transform="translate(-1380.107 -681.608)" fill="#4738b3"/>
            </g>
            <g id="Group_322" data-name="Group 322" transform="translate(3.588 5.712)">
              <path id="Path_722" data-name="Path 722" d="M1380.094,683.4a.046.046,0,0,0-.023.011l-.007.015,0,.031a.06.06,0,0,0,.013.023l.015.005h.03l.023-.013.007-.015,0-.033a.072.072,0,0,0-.012-.02l-.016-.007Z" transform="translate(-1380.064 -683.394)" fill="#4738b3"/>
            </g>
            <g id="Group_323" data-name="Group 323" transform="translate(2.229 1.892)">
              <path id="Path_723" data-name="Path 723" d="M1379.308,681.133l0-.013a.049.049,0,0,0-.033-.036.031.031,0,0,0-.035.013l0,.013a.041.041,0,0,0,.031.035A.034.034,0,0,0,1379.308,681.133Z" transform="translate(-1379.242 -681.082)" fill="#4738b3"/>
            </g>
            <g id="Group_324" data-name="Group 324" transform="translate(1.462 4.274)">
              <path id="Path_724" data-name="Path 724" d="M1378.781,682.537l0,.015a.073.073,0,0,0,.036.038l.021-.005,0,0a.037.037,0,0,0-.013-.051A.031.031,0,0,0,1378.781,682.537Z" transform="translate(-1378.778 -682.524)" fill="#4738b3"/>
            </g>
          </g>
          <g id="Group_329" data-name="Group 329" transform="translate(22.962 69.136)">
            <g id="Group_326" data-name="Group 326">
              <path id="Path_725" data-name="Path 725" d="M1346,649.3l-80.977-.14v-.413l.14-80.563,80.975.14v.413Zm-80.151-.965,79.324.137.139-79.324-79.322-.137Z" transform="translate(-1265.019 -568.187)" fill="#4738b3"/>
            </g>
            <g id="Group_327" data-name="Group 327" transform="translate(0.134 0.247)">
              <rect id="Rectangle_126" data-name="Rectangle 126" width="113.349" height="0.827" transform="matrix(0.708, -0.706, 0.706, 0.708, 0, 80.037)" fill="#4738b3"/>
            </g>
            <g id="Group_328" data-name="Group 328" transform="translate(0.26 0.123)">
              <rect id="Rectangle_127" data-name="Rectangle 127" width="0.825" height="113.35" transform="matrix(0.708, -0.706, 0.706, 0.708, 0, 0.582)" fill="#4738b3"/>
            </g>
          </g>
          <g id="Group_333" data-name="Group 333" transform="translate(22.296 268.799)">
            <g id="Group_330" data-name="Group 330">
              <path id="Path_726" data-name="Path 726" d="M1345.593,754.362h-.413l-80.563-.141v-.413l.111-64.8h.413l80.563.139v.413Zm-80.15-.967,79.324.14.111-63.565-79.324-.139Z" transform="translate(-1264.616 -689.006)" fill="#4738b3"/>
            </g>
            <g id="Group_331" data-name="Group 331" transform="translate(0.145 0.241)">
              <rect id="Rectangle_128" data-name="Rectangle 128" width="102.81" height="0.827" transform="translate(0 64.227) rotate(-38.662)" fill="#4738b3"/>
            </g>
            <g id="Group_332" data-name="Group 332" transform="translate(0.265 0.092)">
              <rect id="Rectangle_129" data-name="Rectangle 129" width="0.826" height="102.811" transform="translate(0 0.643) rotate(-51.123)" fill="#4738b3"/>
            </g>
          </g>
          <g id="Group_337" data-name="Group 337" transform="translate(22.154 349.574)">
            <g id="Group_334" data-name="Group 334">
              <path id="Path_727" data-name="Path 727" d="M1345.507,803.24h-.413l-80.563-.139v-.413l.112-64.8h.413l80.564.139v.413Zm-80.15-.965,79.324.139.112-63.565-79.324-.139Z" transform="translate(-1264.53 -737.884)" fill="#4738b3"/>
            </g>
            <g id="Group_335" data-name="Group 335" transform="translate(0.146 0.241)">
              <rect id="Rectangle_130" data-name="Rectangle 130" width="102.812" height="0.827" transform="translate(0 64.229) rotate(-38.662)" fill="#4738b3"/>
            </g>
            <g id="Group_336" data-name="Group 336" transform="translate(0.266 0.092)">
              <path id="Path_728" data-name="Path 728" d="M1344.73,803.112l-80.039-64.53.52-.642,80.039,64.53Z" transform="translate(-1264.691 -737.94)" fill="#4738b3"/>
            </g>
          </g>
          <g id="Group_338" data-name="Group 338" transform="translate(83.713 28.586)">
            <path id="Path_729" data-name="Path 729" d="M1354.377,560.839l-52.6-.091.026-17.1,52.6.092Zm-51.771-.916,50.944.088.028-15.443-50.946-.089Z" transform="translate(-1301.78 -543.65)" fill="#4738b3"/>
          </g>
          <g id="Group_339" data-name="Group 339" transform="translate(118.402 71.275)">
            <path id="Path_730" data-name="Path 730" d="M1394.23,570.432l-71.46-.124v-.826l71.46.124Z" transform="translate(-1322.771 -569.481)" fill="#4738b3"/>
          </g>
          <g id="Group_340" data-name="Group 340" transform="translate(24.753 199.24)">
            <path id="Path_731" data-name="Path 731" d="M1433.53,648.032l-167.427-.291v-.826l167.427.29Z" transform="translate(-1266.103 -646.915)" fill="#4738b3"/>
          </g>
          <g id="Group_341" data-name="Group 341" transform="translate(24.735 209.055)">
            <path id="Path_732" data-name="Path 732" d="M1433.52,653.971l-167.428-.291v-.826l167.428.291Z" transform="translate(-1266.092 -652.854)" fill="#4738b3"/>
          </g>
          <g id="Group_342" data-name="Group 342" transform="translate(24.719 218.869)">
            <path id="Path_733" data-name="Path 733" d="M1433.51,659.909l-167.427-.29v-.826l167.427.29Z" transform="translate(-1266.082 -658.792)" fill="#4738b3"/>
          </g>
          <g id="Group_343" data-name="Group 343" transform="translate(24.704 228.683)">
            <path id="Path_734" data-name="Path 734" d="M1433.5,665.848c-23.819-.043-143.606-.251-167.425-.291v-.826c23.819.04,143.606.248,167.425.291Z" transform="translate(-1266.073 -664.731)" fill="#4738b3"/>
          </g>
          <g id="Group_344" data-name="Group 344" transform="translate(24.685 238.495)">
            <path id="Path_735" data-name="Path 735" d="M1433.489,671.787l-167.428-.292v-.826l167.428.292Z" transform="translate(-1266.062 -670.668)" fill="#4738b3"/>
          </g>
          <g id="Group_345" data-name="Group 345" transform="translate(65.289 247.834)">
            <path id="Path_736" data-name="Path 736" d="M1376.82,677.3l-86.189-.15v-.826l86.189.15Z" transform="translate(-1290.631 -676.32)" fill="#4738b3"/>
          </g>
          <g id="Group_346" data-name="Group 346" transform="translate(118.392 77.515)">
            <path id="Path_737" data-name="Path 737" d="M1394.223,574.208l-71.458-.124v-.826l71.458.124Z" transform="translate(-1322.765 -573.257)" fill="#4738b3"/>
          </g>
          <g id="Group_347" data-name="Group 347" transform="translate(118.381 83.755)">
            <path id="Path_738" data-name="Path 738" d="M1394.216,577.984h-.245l-71.213-.124v-.826l71.458.124Z" transform="translate(-1322.758 -577.033)" fill="#4738b3"/>
          </g>
          <g id="Group_348" data-name="Group 348" transform="translate(118.368 89.996)">
            <path id="Path_739" data-name="Path 739" d="M1394.21,581.759l-71.46-.123v-.826l71.46.123Z" transform="translate(-1322.75 -580.809)" fill="#4738b3"/>
          </g>
          <g id="Group_349" data-name="Group 349" transform="translate(118.36 96.235)">
            <path id="Path_740" data-name="Path 740" d="M1394.2,585.535l-71.458-.124v-.826l71.458.123Z" transform="translate(-1322.745 -584.585)" fill="#4738b3"/>
          </g>
          <g id="Group_350" data-name="Group 350" transform="translate(118.349 102.475)">
            <path id="Path_741" data-name="Path 741" d="M1394.2,589.311l-71.458-.124v-.826l71.458.123Z" transform="translate(-1322.738 -588.361)" fill="#4738b3"/>
          </g>
          <g id="Group_351" data-name="Group 351" transform="translate(118.73 109.378)">
            <path id="Path_742" data-name="Path 742" d="M1344.838,593.4l-21.869-.038v-.826l21.869.038Z" transform="translate(-1322.969 -592.538)" fill="#4738b3"/>
          </g>
          <g id="Group_352" data-name="Group 352" transform="translate(118.692 121.433)">
            <rect id="Rectangle_131" data-name="Rectangle 131" width="30.912" height="9.338" transform="translate(0.016 0) rotate(0.1)" fill="#4738b3"/>
          </g>
          <g id="Group_353" data-name="Group 353" transform="translate(159.184 121.422)">
            <path id="Path_743" data-name="Path 743" d="M1377,609.38l-29.55-.051.013-9.5,29.55.05Zm-28.724-.878,27.9.05.013-7.851-27.9-.048Z" transform="translate(-1347.449 -599.826)" fill="#4738b3"/>
          </g>
          <g id="Group_354" data-name="Group 354" transform="translate(44.98 173.792)">
            <rect id="Rectangle_132" data-name="Rectangle 132" width="127.034" height="8.178" transform="matrix(1, 0.002, -0.002, 1, 0.014, 0)" fill="#4738b3"/>
          </g>
          <g id="Group_355" data-name="Group 355" transform="translate(115.196 281.242)">
            <rect id="Rectangle_133" data-name="Rectangle 133" width="50.869" height="5.816" transform="matrix(1, 0.002, -0.002, 1, 0.01, 0)" fill="#4738b3"/>
          </g>
          <g id="Group_356" data-name="Group 356" transform="translate(115.181 296.14)">
            <path id="Path_744" data-name="Path 744" d="M1401.532,706.517l-80.71-.14v-.826l80.71.14Z" transform="translate(-1320.822 -705.55)" fill="#4738b3"/>
          </g>
          <g id="Group_357" data-name="Group 357" transform="translate(115.171 301.154)">
            <path id="Path_745" data-name="Path 745" d="M1401.526,709.551l-80.71-.14v-.826l80.71.14Z" transform="translate(-1320.816 -708.584)" fill="#4738b3"/>
          </g>
          <g id="Group_358" data-name="Group 358" transform="translate(115.161 307.332)">
            <path id="Path_746" data-name="Path 746" d="M1371.678,713.238l-50.868-.089v-.826l50.868.089Z" transform="translate(-1320.81 -712.323)" fill="#4738b3"/>
          </g>
          <g id="Group_359" data-name="Group 359" transform="translate(114.71 315.706)">
            <path id="Path_747" data-name="Path 747" d="M1334.814,731.69l-14.277-.023.023-14.277,14.277.023Zm-13.45-.85,12.624.023.023-12.624-12.624-.023Z" transform="translate(-1320.537 -717.39)" fill="#4738b3"/>
          </g>
          <g id="Group_360" data-name="Group 360" transform="translate(115.072 352.483)">
            <rect id="Rectangle_134" data-name="Rectangle 134" width="50.869" height="5.816" transform="translate(0.01 0) rotate(0.1)" fill="#4738b3"/>
          </g>
          <g id="Group_361" data-name="Group 361" transform="translate(115.056 367.38)">
            <path id="Path_748" data-name="Path 748" d="M1401.458,749.625l-80.712-.14v-.826l80.712.14Z" transform="translate(-1320.746 -748.659)" fill="#4738b3"/>
          </g>
          <g id="Group_362" data-name="Group 362" transform="translate(115.048 372.394)">
            <path id="Path_749" data-name="Path 749" d="M1401.452,752.659l-80.711-.14v-.826l80.711.14Z" transform="translate(-1320.742 -751.693)" fill="#4738b3"/>
          </g>
          <g id="Group_363" data-name="Group 363" transform="translate(115.037 378.572)">
            <path id="Path_750" data-name="Path 750" d="M1371.6,756.346l-50.869-.089v-.826l50.869.089Z" transform="translate(-1320.735 -755.431)" fill="#4738b3"/>
          </g>
          <g id="Group_364" data-name="Group 364" transform="translate(114.586 386.946)">
            <path id="Path_751" data-name="Path 751" d="M1334.739,774.8l-14.276-.025.023-14.277,14.275.023Zm-13.45-.851,12.624.025.022-12.626-12.623-.023Z" transform="translate(-1320.462 -760.498)" fill="#4738b3"/>
          </g>
        </g>
      </g>
      <g transform="matrix(1, 0, 0, 1, 120.46, 457.29)" filter="url(#Rectangle_135)">
        <rect id="Rectangle_135-2" data-name="Rectangle 135" width="88.213" height="60.952" transform="translate(1170.19 440.07)" fill="url(#linear-gradient-8)"/>
      </g>
      <g id="Group_368" data-name="Group 368" transform="translate(1489.753 914.88)">
        <path id="Path_752" data-name="Path 752" d="M1461.927,759.673l-5,57.734H1393.3l-11.333,18.625V817.407h-16.991V757.544Z" transform="translate(-1364.972 -733.294)" fill="#946ccf" opacity="0.45"/>
        <path id="Path_753" data-name="Path 753" d="M1387.778,745l5,57.734h63.628l11.333,18.625V802.733h16.992V742.87Z" transform="translate(-1350.089 -742.87)" fill="#946ccf"/>
        <g id="Group_367" data-name="Group 367" transform="translate(68.364 28.931)">
          <path id="Path_754" data-name="Path 754" d="M1412.248,763.33a2.954,2.954,0,1,1-2.955-2.953A2.952,2.952,0,0,1,1412.248,763.33Z" transform="translate(-1406.34 -760.377)" fill="#ebebea"/>
          <path id="Path_755" data-name="Path 755" d="M1423.122,763.33a2.955,2.955,0,1,1-2.955-2.953A2.952,2.952,0,0,1,1423.122,763.33Z" transform="translate(-1399.245 -760.377)" fill="#ebebea"/>
          <path id="Path_756" data-name="Path 756" d="M1433.993,763.33a2.954,2.954,0,1,1-2.953-2.953A2.952,2.952,0,0,1,1433.993,763.33Z" transform="translate(-1392.149 -760.377)" fill="#ebebea"/>
        </g>
      </g>
      <g transform="matrix(1, 0, 0, 1, 120.46, 457.29)" filter="url(#Path_757)">
        <path id="Path_757-2" data-name="Path 757" d="M1476.925,625.037a3.109,3.109,0,0,1,2.51,4.764l-30.163,47.885-30.163,47.889a3.109,3.109,0,0,1-5.381-.208l-26.39-50.065-26.39-50.065a3.109,3.109,0,0,1,2.869-4.558l56.553,2.178Z" transform="translate(1.45 -365.02)" fill="#fecb00"/>
      </g>
      <g id="Group_371" data-name="Group 371" transform="translate(1237.471 523.557)" opacity="0.69">
        <g id="Group_369" data-name="Group 369" transform="translate(74.535 74.535)">
          <path id="Path_758" data-name="Path 758" d="M1264.22,551.178a6.805,6.805,0,1,1-6.805,6.805A6.806,6.806,0,0,1,1264.22,551.178Z" transform="translate(-1257.415 -551.178)" fill="#fecb00"/>
        </g>
        <g id="Group_370" data-name="Group 370">
          <path id="Path_759" data-name="Path 759" d="M1252.115,574.324a28.479,28.479,0,0,1,28.446-28.444v-9.314a37.8,37.8,0,0,0-37.758,37.758Z" transform="translate(-1192.416 -486.179)" fill="#fecb00"/>
          <path id="Path_760" data-name="Path 760" d="M1237.964,584.427a52.761,52.761,0,0,1,52.7-52.7h0V521.084h0a63.415,63.415,0,0,0-63.344,63.344Z" transform="translate(-1202.519 -496.282)" fill="#fecb00"/>
          <path id="Path_761" data-name="Path 761" d="M1223.775,594.221a76.77,76.77,0,0,1,76.683-76.683h0V506.076h0a88.247,88.247,0,0,0-88.146,88.145Z" transform="translate(-1212.313 -506.076)" fill="#fecb00"/>
        </g>
      </g>
      <line id="Line_15" data-name="Line 15" x1="2.513" transform="translate(1354.091 775.934)" fill="none"/>
      <g transform="matrix(1, 0, 0, 1, 120.46, 457.29)" filter="url(#Rectangle_136)">
        <rect id="Rectangle_136-2" data-name="Rectangle 136" width="111.118" height="78.501" transform="translate(1144.12 144.31)" fill="#4738b3"/>
      </g>
      <path id="Path_762" data-name="Path 762" d="M1238.942,606.585l22.069-21.2a3.434,3.434,0,0,1,4.3-.37l6.9,4.659a3.429,3.429,0,0,0,4.439-.514l18.124-19.6a3.431,3.431,0,0,1,5.5.635l20.441,36.018a3.431,3.431,0,0,1-2.932,5.125l-76.409,1.155A3.431,3.431,0,0,1,1238.942,606.585Z" transform="translate(41.844 58.189)" fill="#29227f" opacity="0.28"/>
      <path id="Path_763" data-name="Path 763" d="M1259.842,570.75a4.6,4.6,0,1,1-4.6-4.6A4.6,4.6,0,0,1,1259.842,570.75Z" transform="translate(50.168 56.682)" fill="#29227f" opacity="0.28"/>
      <path id="Path_764" data-name="Path 764" d="M1333.623,625.786H1231.039V556.168h102.584Zm-100.932-1.653h99.279V557.821h-99.279Z" transform="translate(37.378 50.171)" fill="#29227f" opacity="0.28"/>
      <g id="Group_373" data-name="Group 373" transform="translate(1177.765 726.97)">
        <g transform="matrix(1, 0, 0, 1, -1057.3, -269.68)" filter="url(#Rectangle_137)">
          <rect id="Rectangle_137-2" data-name="Rectangle 137" width="207.559" height="67.982" transform="translate(1057.3 269.68)" fill="#eeeef3"/>
        </g>
        <rect id="Rectangle_138" data-name="Rectangle 138" width="207.556" height="15.941" fill="#29227f" opacity="0.1"/>
        <rect id="Rectangle_139" data-name="Rectangle 139" width="162.633" height="1.653" transform="translate(20.748 28.827)" fill="#29227f" opacity="0.1"/>
        <rect id="Rectangle_140" data-name="Rectangle 140" width="162.633" height="1.653" transform="translate(20.748 40.274)" fill="#29227f" opacity="0.1"/>
        <rect id="Rectangle_141" data-name="Rectangle 141" width="162.633" height="1.653" transform="translate(20.748 51.721)" fill="#29227f" opacity="0.1"/>
        <g id="Group_372" data-name="Group 372" transform="translate(193.099 4.762)">
          <path id="Path_765" data-name="Path 765" d="M1293.435,638.457l-.278-.307,6.781-6.1.278.307Z" transform="translate(-1292.948 -632.043)" fill="#4738b3"/>
          <path id="Path_766" data-name="Path 766" d="M1300.241,638.462l-7.211-6.1.268-.315,7.211,6.1Z" transform="translate(-1293.031 -632.045)" fill="#4738b3"/>
        </g>
      </g>
      <path id="Path_767" data-name="Path 767" d="M1252.3,773.477l17.27-16.179a2.738,2.738,0,0,1,3.364-.282l5.4,3.555a2.735,2.735,0,0,0,3.475-.392l14.182-14.964a2.722,2.722,0,0,1,4.305.484l16,27.492a2.618,2.618,0,0,1-2.3,3.91l-59.794.883A2.611,2.611,0,0,1,1252.3,773.477Z" transform="translate(50.71 172.99)" fill="#29227f" opacity="0.15"/>
      <ellipse id="Ellipse_3" data-name="Ellipse 3" cx="3.602" cy="3.513" rx="3.602" ry="3.513" transform="translate(1319.537 914.451)" fill="#29227f" opacity="0.15"/>
      <path id="Path_768" data-name="Path 768" d="M1327.164,788.044h-80.638V734.515h80.638Zm-78.985-1.652h77.333V736.168h-77.333Z" transform="translate(47.485 166.557)" fill="#29227f" opacity="0.15"/>
      <g id="Group_375" data-name="Group 375" transform="translate(1173.762 832.177)">
        <g id="Group_374" data-name="Group 374">
          <path id="Path_769" data-name="Path 769" d="M1173.762,701.221l1.456,81.159,95.929.015,4.693-89.569Z" transform="translate(-1173.762 -692.826)" fill="#f0f3f5"/>
          <path id="Path_770" data-name="Path 770" d="M1193.772,744.311s-4.049,34.189,10.474,34.562,31.364-3.978,31.364-3.978-26.866-2.135-28.383-6.619,2.147-19.995,2.147-19.995Z" transform="translate(-1161.042 -659.227)" fill="#f0f3f5"/>
        </g>
      </g>
      <path id="Path_771" data-name="Path 771" d="M1210.4,703.308l-4.481,22.912-20.044,2.652,17.428,10.1-4.827,20.83,16.142-14.4,18.051,10.566-8.44-19.342,14.334-11.208-19.711-.642Z" transform="translate(7.904 146.192)" fill="#fecb00"/>
      <g id="Group_380" data-name="Group 380" transform="translate(1527.318 562.563)">
        <g id="Group_377" data-name="Group 377">
          <g id="Group_376" data-name="Group 376">
            <path id="Path_772" data-name="Path 772" d="M1478.93,529.679l5.973,72.064-85.021,8.6L1387.7,531.376Z" transform="translate(-1387.703 -529.679)" fill="#f0f3f5"/>
            <path id="Path_773" data-name="Path 773" d="M1427.2,575.118s.517,23.883-9.539,23.173-21.4-4.837-21.4-4.837,18.7.316,20.042-2.679-.15-13.953-.15-13.953Z" transform="translate(-1382.117 -500.026)" fill="#f0f3f5"/>
          </g>
        </g>
        <g id="Group_379" data-name="Group 379" transform="translate(29.495 10.294)">
          <g id="Group_378" data-name="Group 378">
            <path id="Path_774" data-name="Path 774" d="M1433.574,546.284a11.176,11.176,0,1,1-11.947-10.347A11.175,11.175,0,0,1,1433.574,546.284Z" transform="translate(-1401.832 -535.908)" fill="#946ccf"/>
            <path id="Path_775" data-name="Path 775" d="M1427.026,551.8h-1.763c-10.886,0-19.712,15.476-19.712,30.454l41.187-3.335C1444.438,562.646,1437.914,551.8,1427.026,551.8Z" transform="translate(-1405.551 -525.534)" fill="#946ccf"/>
          </g>
          <path id="Path_776" data-name="Path 776" d="M1438,567.08a5.4,5.4,0,1,1-5.4-5.4A5.4,5.4,0,0,1,1438,567.08Z" transform="translate(-1391.419 -519.089)" fill="#4738b3"/>
          <path id="Path_777" data-name="Path 777" d="M1433.684,565.381h-1.827v-1.825h-.949v1.825h-1.827v.951h1.827v1.826h.949v-1.826h1.827Z" transform="translate(-1390.195 -517.866)" fill="#946ccf"/>
        </g>
      </g>
    </g>
  </g>
</svg>
