<svg xmlns="http://www.w3.org/2000/svg" xmlns:xlink="http://www.w3.org/1999/xlink" width="42" height="42" viewBox="0 0 42 42">
  <defs>
    <clipPath id="clip-carries-icon">
      <rect width="42" height="42"/>
    </clipPath>
  </defs>
  <g id="carries-icon" clip-path="url(#clip-carries-icon)">
    <rect width="42" height="42" fill="rgba(255,255,255,0)"/>
    <g id="career" transform="translate(-11.5 -12)">
      <ellipse id="Ellipse_15" data-name="Ellipse 15" cx="1" cy="1.5" rx="1" ry="1.5" transform="translate(25.5 27.5)" fill="#0e47a2"/>
      <ellipse id="Ellipse_16" data-name="Ellipse 16" cx="0.5" cy="1.5" rx="0.5" ry="1.5" transform="translate(27.5 27.5)" fill="#0e47a2"/>
      <path id="Path_819" data-name="Path 819" d="M48.226,104.675H41.3a.575.575,0,0,0-.534.361l-.5,1.244-6.751-6.751a4,4,0,0,0-2.736-1.176A4.011,4.011,0,0,0,30.95,97.2v-.976L32,94.647v0h0a.572.572,0,0,0,.1-.319V92.6A4.605,4.605,0,0,0,27.5,88H25.911a2.638,2.638,0,0,0-2.2,1.167A3.455,3.455,0,0,0,20.6,92.6v1.15a5.2,5.2,0,0,0,2.07,4.14l.23.172v.287H21.454A5.46,5.46,0,0,0,16,103.8v13.521h1.15V107.152a5.535,5.535,0,0,0,.447.508l6.017,6.017a4.57,4.57,0,0,0,3.253,1.347h.116a2.88,2.88,0,0,0,2.817,2.3H44.157a2.289,2.289,0,0,0,2.135-1.446l3.535-8.839a1.725,1.725,0,0,0-1.6-2.366Zm-10.012,6.74,0-.017a3.218,3.218,0,0,0-2.3-2.576l-2.134-2.134,2.637-2.637,3.391,3.391Zm-3.958-2.621a3.231,3.231,0,0,0-.674.246l-1.618.809H30.95v-4.362ZM24.05,100.013a4.02,4.02,0,0,0,3.886,1.083,2.012,2.012,0,0,1-3.886-.734Zm2.875.062A2.878,2.878,0,0,1,24.05,97.2V94.427a3.353,3.353,0,0,0,1.214-1.252A4.707,4.707,0,0,0,28.921,94.9H29.8v2.3A2.878,2.878,0,0,1,26.925,100.075ZM25.911,89.15H27.5a3.454,3.454,0,0,1,3.45,3.45v1.15H28.921a3.566,3.566,0,0,1-3.207-1.982l-1.008-2.015A1.5,1.5,0,0,1,25.911,89.15Zm-4.161,4.6V92.6a2.3,2.3,0,0,1,1.957-2.275l.85,1.7-.25.5a2.2,2.2,0,0,1-1.982,1.225V94.9a3.411,3.411,0,0,0,.575-.05v1.714a4.046,4.046,0,0,1-1.15-2.814ZM17.15,103.8a4.309,4.309,0,0,1,4.3-4.3H22.9v.862a3.162,3.162,0,0,0,6.321.14,4.057,4.057,0,0,0,1-1h.446a2.856,2.856,0,0,1,2.033.842l2.9,2.9-2.637,2.637-2.181-2.181a.575.575,0,0,0-.982.407v5.75H27.738l-6.157-6.157-.813.813,2.181,2.181L20.6,109.037l-2.189-2.189A4.276,4.276,0,0,1,17.15,103.8Zm7.278,9.061-3.015-3.015,2.349-2.349,3.331,3.331A.575.575,0,0,0,27.5,111h4.6a.575.575,0,0,0,.257-.061l1.74-.87a2.079,2.079,0,0,1,2.981,1.518l.157.94-1.109,1.109-1.318-1.318a.575.575,0,0,0-.664-.108l-3.329,1.664H26.867A3.427,3.427,0,0,1,24.428,112.864Zm10.309,1.01H33.386l.9-.45Zm-6.563,1.15h8.6l-.46,1.15H29.8a1.728,1.728,0,0,1-1.626-1.15Zm9.376,1.15,4.14-10.35H41.9a.575.575,0,0,1,.534.789L38.9,115.452a1.144,1.144,0,0,1-1.068.723Zm11.211-9.561-3.535,8.839a1.144,1.144,0,0,1-1.068.723H39.824a2.336,2.336,0,0,0,.144-.3L43.5,107.04a1.723,1.723,0,0,0,.024-1.216h4.7a.575.575,0,0,1,.534.789Z" transform="translate(0 -66.825)" fill="#0e47a2"/>
      <path id="Path_820" data-name="Path 820" d="M271.525,16h-13.8A1.727,1.727,0,0,0,256,17.725V30.95h1.15V20.6H272.1V32.675a.576.576,0,0,1-.575.575h-1.15a.575.575,0,0,0-.575.575v1.758l-3.116-2.226a.575.575,0,0,0-.334-.107h-7.475V34.4h7.291l3.875,2.768a.575.575,0,0,0,.909-.468V34.4h.575a1.727,1.727,0,0,0,1.725-1.725V17.725A1.727,1.727,0,0,0,271.525,16ZM257.15,19.45V17.725a.576.576,0,0,1,.575-.575h13.8a.576.576,0,0,1,.575.575V19.45Z" transform="translate(-222.75)" fill="#0e47a2"/>
      <ellipse id="Ellipse_17" data-name="Ellipse 17" cx="0.5" cy="1" rx="0.5" ry="1" transform="translate(35.5 17.5)" fill="#0e47a2"/>
      <ellipse id="Ellipse_18" data-name="Ellipse 18" cx="0.5" cy="1" rx="0.5" ry="1" transform="translate(37.5 17.5)" fill="#0e47a2"/>
      <ellipse id="Ellipse_19" data-name="Ellipse 19" cy="1" ry="1" transform="translate(39.5 17.5)" fill="#0e47a2"/>
      <path id="Path_821" data-name="Path 821" d="M288.575,87.925h3.45a.575.575,0,0,0,.575-.575V84.138l.982-.982-.813-.813-.982.982h-3.212A.575.575,0,0,0,288,83.9v3.45A.575.575,0,0,0,288.575,87.925Zm.575-3.45h1.487l-.743.743.813.813.743-.743v1.487h-2.3Z" transform="translate(-252.45 -61.575)" fill="#0e47a2"/>
      <rect id="Rectangle_253" data-name="Rectangle 253" height="1" transform="translate(42.5 22.5)" fill="#0e47a2"/>
      <rect id="Rectangle_254" data-name="Rectangle 254" width="4" height="1" transform="translate(44.5 22.5)" fill="#0e47a2"/>
      <rect id="Rectangle_255" data-name="Rectangle 255" width="3" height="1" transform="translate(42.5 24.5)" fill="#0e47a2"/>
      <path id="Path_822" data-name="Path 822" d="M288,167.35a.575.575,0,0,0,.575.575h3.45a.575.575,0,0,0,.575-.575v-3.212l.982-.982-.813-.813-.982.982h-3.212a.575.575,0,0,0-.575.575Zm1.15-2.875h1.487l-.743.743.813.813.743-.743v1.487h-2.3Z" transform="translate(-252.45 -135.825)" fill="#0e47a2"/>
      <rect id="Rectangle_256" data-name="Rectangle 256" width="2" height="1" transform="translate(42.5 27.5)" fill="#0e47a2"/>
      <rect id="Rectangle_257" data-name="Rectangle 257" width="3" height="1" transform="translate(45.5 27.5)" fill="#0e47a2"/>
      <rect id="Rectangle_258" data-name="Rectangle 258" width="4" transform="translate(42.5 31.5)" fill="#0e47a2"/>
    </g>
  </g>
</svg>
