<svg xmlns="http://www.w3.org/2000/svg" xmlns:xlink="http://www.w3.org/1999/xlink" width="34" height="34" viewBox="0 0 34 34">
  <defs>
    <clipPath id="clip-cart">
      <rect width="34" height="34"/>
    </clipPath>
  </defs>
  <g id="cart" clip-path="url(#clip-cart)">
    <rect width="34" height="34" fill="rgba(255,255,255,0)"/>
    <path id="Path_562" data-name="Path 562" d="M11.9,24.165a2.9,2.9,0,1,0,2.9,2.9h0A2.916,2.916,0,0,0,11.9,24.165Zm1.395,2.9A1.395,1.395,0,1,1,11.9,25.674,1.416,1.416,0,0,1,13.3,27.069Zm8.283-2.9a2.9,2.9,0,1,0,0,5.807h0a2.879,2.879,0,0,0,2.9-2.9,2.916,2.916,0,0,0-2.9-2.9Zm1.366,2.9a1.361,1.361,0,0,1-1.366,1.366,1.395,1.395,0,0,1,0-2.79A1.456,1.456,0,0,1,22.945,27.069ZM28.667,7.827a.756.756,0,0,0-.626-.313H7.688L7.461,6.119A3.1,3.1,0,0,0,4.387,3.5H1.569a.769.769,0,1,0,0,1.537H4.387A1.568,1.568,0,0,1,5.952,6.375L8.2,20.493a3.05,3.05,0,0,0,3.074,2.619H25.08a.769.769,0,1,0,0-1.537H11.275a1.589,1.589,0,0,1-1.566-1.338L9.4,18.188H23.2a3.1,3.1,0,0,0,2.932-2.106L28.752,8.51A.731.731,0,0,0,28.667,7.827Zm-1.708,1.2L24.682,15.6a1.6,1.6,0,0,1-1.509,1.053H9.14l-1.2-7.628Z" transform="translate(2.199 0.5)" fill="#5a5a5a"/>
  </g>
</svg>
