<svg xmlns="http://www.w3.org/2000/svg" xmlns:xlink="http://www.w3.org/1999/xlink" width="42" height="42" viewBox="0 0 42 42">
  <defs>
    <clipPath id="clip-help-icon-1">
      <rect width="42" height="42"/>
    </clipPath>
  </defs>
  <g id="help-icon-1" clip-path="url(#clip-help-icon-1)">
    <rect width="42" height="42" fill="rgba(255,255,255,0)"/>
    <g id="social-care" transform="translate(1 1.5)">
      <g id="Group_445" data-name="Group 445" transform="translate(5.986 36.78)">
        <g id="Group_444" data-name="Group 444">
          <path id="Path_810" data-name="Path 810" d="M79.218,472.777l-1.176-1.657a.781.781,0,1,0-1.274.9l1.176,1.657a.781.781,0,0,0,1.274-.9Z" transform="translate(-76.624 -470.791)" fill="#0e47a2" stroke="#0e47a2" stroke-width="0.5"/>
        </g>
      </g>
      <g id="Group_447" data-name="Group 447" transform="translate(0 12.223)">
        <g id="Group_446" data-name="Group 446">
          <path id="Path_811" data-name="Path 811" d="M17.6,183.286l-1.28-6.1a11.505,11.505,0,0,0-4.866-7.223l-2.733-1.838a2.749,2.749,0,0,0-3.485.356v-9.414a2.615,2.615,0,0,0-4.252-2.04A2.6,2.6,0,0,0,0,159.067v12.113a7.568,7.568,0,0,0,1.4,4.4L2.8,177.547a.781.781,0,0,0,1.274-.9L2.679,174.68a6.013,6.013,0,0,1-1.116-3.5V159.067a1.053,1.053,0,1,1,2.106,0v9.611a5.459,5.459,0,0,0,1.408,3.665c.039.047.079.093.121.138.519.55,1.129,1.2,1.7,1.808l.8.856.008.008,1.206,1.283a.781.781,0,1,0,1.139-1.07l-1.973-2.1-1.791-1.906-.013-.015a1.318,1.318,0,0,1,.025-1.728,1.181,1.181,0,0,1,1.538-.2l2.733,1.838a9.951,9.951,0,0,1,4.209,6.247l1.28,6.1a.781.781,0,1,0,1.529-.321Z" transform="translate(-0.001 -156.451)" fill="#0e47a2" stroke="#0e47a2" stroke-width="0.5"/>
        </g>
      </g>
      <g id="Group_449" data-name="Group 449" transform="translate(4.366 34.498)">
        <g id="Group_448" data-name="Group 448">
          <path id="Path_812" data-name="Path 812" d="M57.306,441.91,57.3,441.9a.781.781,0,0,0-1.272.908l0,.007a.781.781,0,0,0,1.272-.908Z" transform="translate(-55.884 -441.575)" fill="#0e47a2" stroke="#0e47a2" stroke-width="0.5"/>
        </g>
      </g>
      <g id="Group_451" data-name="Group 451" transform="translate(22.389 12.223)">
        <g id="Group_450" data-name="Group 450">
          <path id="Path_813" data-name="Path 813" d="M303.212,157.03a2.615,2.615,0,0,0-4.252,2.04v9.414a2.749,2.749,0,0,0-3.485-.356l-2.733,1.838a11.5,11.5,0,0,0-4.866,7.223l-1.28,6.1a.781.781,0,1,0,1.529.321l1.28-6.1a9.951,9.951,0,0,1,4.208-6.247l2.733-1.838a1.181,1.181,0,0,1,1.538.2,1.318,1.318,0,0,1,.027,1.726l-.015.017-3.765,4.006a.781.781,0,1,0,1.139,1.07c.011-.011,3.2-3.406,3.722-3.955.042-.045.082-.091.121-.138a5.459,5.459,0,0,0,1.408-3.665V159.07a1.053,1.053,0,1,1,2.106,0v12.113a6.013,6.013,0,0,1-1.116,3.5L295.61,183a.781.781,0,1,0,1.274.9l5.9-8.315a7.567,7.567,0,0,0,1.4-4.4V159.07A2.6,2.6,0,0,0,303.212,157.03Z" transform="translate(-286.58 -156.454)" fill="#0e47a2" stroke="#0e47a2" stroke-width="0.5"/>
        </g>
      </g>
      <g id="Group_453" data-name="Group 453" transform="translate(7.296 4.219)">
        <g id="Group_452" data-name="Group 452">
          <path id="Path_814" data-name="Path 814" d="M115.989,64.755l-1.39-.332v-.249a3.494,3.494,0,0,0,1.5-2.865V59.5a3.494,3.494,0,0,0-5.765-2.657,4.562,4.562,0,0,0-8.454.006A3.494,3.494,0,0,0,96.1,59.5v1.807a3.494,3.494,0,0,0,1.5,2.865v.249l-1.39.332a3.66,3.66,0,0,0-2.819,3.571v1.459a.781.781,0,0,0,.781.781h3.59c-.006.095-.009.19-.009.286v2.809a.781.781,0,0,0,.781.781h4.7a.781.781,0,1,0,0-1.562h-.807V71.266a.781.781,0,0,0-1.562,0V72.88H99.314V70.852A3.235,3.235,0,0,1,101.8,67.7l2.144-.514,1.435,3.264a.781.781,0,0,0,.715.467h0a.781.781,0,0,0,.715-.467l1.433-3.259,2.137.511a3.234,3.234,0,0,1,2.491,3.156V72.88h-1.545V71.266a.781.781,0,0,0-1.562,0V72.88h-.885a.781.781,0,1,0,0,1.562h4.774a.781.781,0,0,0,.781-.781V70.854c0-.1,0-.193-.01-.288h3.6a.781.781,0,0,0,.781-.781V68.326A3.66,3.66,0,0,0,115.989,64.755ZM112.6,57.567a1.937,1.937,0,0,1,1.93,1.806h-1.086a5.694,5.694,0,0,1-2.619-.638A1.937,1.937,0,0,1,112.6,57.567Zm-1.934,3.627c0-.038,0-.076,0-.114v-.7a7.257,7.257,0,0,0,2.775.552h1.09v.372a1.934,1.934,0,1,1-3.868,0ZM103.1,58.563h0a3,3,0,0,1,5.964-.477l-1.315-.773a.781.781,0,0,0-.995.172,3.366,3.366,0,0,1-2.586,1.207H103.1Zm-3.5-1a1.937,1.937,0,0,1,1.776,1.168,5.7,5.7,0,0,1-2.619.638H97.67A1.937,1.937,0,0,1,99.6,57.567Zm-1.934,3.369h1.09a7.257,7.257,0,0,0,2.778-.553v.925a1.934,1.934,0,0,1-3.868,0Zm3.774,5.241A4.791,4.791,0,0,0,98.119,69H94.953v-.678a2.1,2.1,0,0,1,1.619-2.052l1.99-.475a.781.781,0,0,0,.6-.76v-.263a3.392,3.392,0,0,0,.874,0V65c0,.012,0,.023,0,.035a.782.782,0,0,0,.635.769l1.165.279Zm2.179-1.213a3.666,3.666,0,0,0-.626-.211l-1.4-.334v-.243a3.525,3.525,0,0,0,.677-.619,4.6,4.6,0,0,0,1.344,1.347Zm3.393,1.148-.914,2.079-.916-2.085v-.558a4.578,4.578,0,0,0,1.831,0Zm-.908-2.031a3,3,0,0,1-3-3v-.825h1.068a4.922,4.922,0,0,0,3.32-1.282l1.611.947v1.275A3,3,0,0,1,106.1,64.081Zm2.47.886v-.053a4.6,4.6,0,0,0,1.355-1.35,3.525,3.525,0,0,0,.671.612v.243l-1.4.334A3.679,3.679,0,0,0,108.574,64.967ZM117.245,69h-3.177a4.79,4.79,0,0,0-3.322-2.825l-.392-.094,1.172-.281a.782.782,0,0,0,.638-.769c0-.006,0-.012,0-.018v-.24a3.392,3.392,0,0,0,.874,0v.263a.781.781,0,0,0,.6.76l1.99.475a2.1,2.1,0,0,1,1.619,2.052V69Z" transform="translate(-93.39 -54)" fill="#0e47a2" stroke="#0e47a2" stroke-width="0.5"/>
        </g>
      </g>
      <g id="Group_455" data-name="Group 455" transform="translate(19.219 23.099)">
        <g id="Group_454" data-name="Group 454">
          <path id="Path_815" data-name="Path 815" d="M247.334,295.9a.782.782,0,1,0,.229.553A.787.787,0,0,0,247.334,295.9Z" transform="translate(-246 -295.67)" fill="#0e47a2" stroke="#0e47a2" stroke-width="0.5"/>
        </g>
      </g>
      <g id="Group_457" data-name="Group 457" transform="translate(19.218)">
        <g id="Group_456" data-name="Group 456">
          <path id="Path_816" data-name="Path 816" d="M246.774,0a.781.781,0,0,0-.781.781V1.95a.781.781,0,0,0,1.563,0V.781A.781.781,0,0,0,246.774,0Z" transform="translate(-245.993)" fill="#0e47a2" stroke="#0e47a2" stroke-width="0.5"/>
        </g>
      </g>
      <g id="Group_459" data-name="Group 459" transform="translate(14.969 1.501)">
        <g id="Group_458" data-name="Group 458">
          <path id="Path_817" data-name="Path 817" d="M193.752,20.26l-.82-.819a.781.781,0,1,0-1.1,1.105l.82.819a.781.781,0,1,0,1.1-1.105Z" transform="translate(-191.599 -19.213)" fill="#0e47a2" stroke="#0e47a2" stroke-width="0.5"/>
        </g>
      </g>
      <g id="Group_461" data-name="Group 461" transform="translate(22.636 1.521)">
        <g id="Group_460" data-name="Group 460">
          <path id="Path_818" data-name="Path 818" d="M291.892,19.7a.781.781,0,0,0-1.1,0l-.813.814a.781.781,0,1,0,1.105,1.1l.813-.814A.781.781,0,0,0,291.892,19.7Z" transform="translate(-289.746 -19.469)" fill="#0e47a2" stroke="#0e47a2" stroke-width="0.5"/>
        </g>
      </g>
    </g>
  </g>
</svg>
