<svg xmlns="http://www.w3.org/2000/svg" xmlns:xlink="http://www.w3.org/1999/xlink" width="42" height="42" viewBox="0 0 42 42">
  <defs>
    <clipPath id="clip-help-icon-3">
      <rect width="42" height="42"/>
    </clipPath>
  </defs>
  <g id="help-icon-3" clip-path="url(#clip-help-icon-3)">
    <rect width="42" height="42" fill="rgba(255,255,255,0)"/>
    <g id="helping-hand" transform="translate(3 2.5)">
      <g id="Group_443" data-name="Group 443" transform="translate(0 0)">
        <g id="Group_442" data-name="Group 442">
          <g id="Group_441" data-name="Group 441">
            <path id="Path_807" data-name="Path 807" d="M464.509,387.168l-2.427-2.427a.548.548,0,1,0-.775.775l2.427,2.427a.548.548,0,1,0,.775-.775Z" transform="translate(-427.646 -356.482)" fill="#0e47a2" stroke="#0e47a2" stroke-width="1"/>
            <path id="Path_808" data-name="Path 808" d="M16.389,102.22a.548.548,0,1,0,1.1,0v-.845a2.143,2.143,0,0,0-.2-4.073,2.142,2.142,0,0,0-1.818-3.266A2.142,2.142,0,0,0,13.6,90.845H12.543a2.142,2.142,0,0,0-1.869-3.191h-.027a.548.548,0,0,0,0,1.1h.027a1.048,1.048,0,1,1,0,2.1H8.166a1.048,1.048,0,0,1-.095-2.091.548.548,0,1,0-.1-1.092,2.154,2.154,0,0,0-.8.232L3.568,84.288a.548.548,0,0,0-.775.775l3.57,3.57a2.149,2.149,0,0,0,1.8,3.308h.271a2.142,2.142,0,0,0,1.869,3.191h.03a2.142,2.142,0,0,0,1.869,3.191h.7a2.142,2.142,0,0,0,1.869,3.191h1.613v.705Zm-7.13-9.232a1.049,1.049,0,0,1,1.048-1.048H13.6a1.048,1.048,0,1,1,0,2.1H10.306A1.049,1.049,0,0,1,9.258,92.988Zm1.9,3.191a1.049,1.049,0,0,1,1.048-1.048h3.254a1.048,1.048,0,1,1,0,2.1H12.205a1.049,1.049,0,0,1-1.048-1.048Zm2.57,3.191a1.049,1.049,0,0,1,1.048-1.048h1.948a1.048,1.048,0,1,1,0,2.1H14.776A1.049,1.049,0,0,1,13.728,99.371Z" transform="translate(-2.632 -77.981)" fill="#0e47a2" stroke="#0e47a2" stroke-width="1"/>
            <path id="Path_809" data-name="Path 809" d="M114.125,23a2.43,2.43,0,0,0-.717-1.749l-3.177-3.177a5.617,5.617,0,0,0-2.032-1.3l-4.28-1.562-1.562-4.28a5.615,5.615,0,0,0-1.3-2.032L98.42,6.262a2.446,2.446,0,0,0-4.05.948L87.7.171a.548.548,0,1,0-.8.754l13.3,14.041a.547.547,0,0,0,.21.138l7.408,2.7a4.512,4.512,0,0,1,1.633,1.041l3.177,3.177a1.352,1.352,0,0,1-.014,1.926,1.358,1.358,0,0,1-1.9-.015l-2.651-2.656a.548.548,0,0,0-.936.387v9.4a1.048,1.048,0,0,1-2.1,0V27.76a.548.548,0,1,0-1.1,0v2.453a1.048,1.048,0,0,1-1.086,1.047,1.076,1.076,0,0,1-1.009-1.085v-3.51a.548.548,0,1,0-1.1,0v2.692a1.048,1.048,0,1,1-2.1,0V25.872a.548.548,0,0,0-1.1,0v1.77a1.048,1.048,0,0,1-1.086,1.047A1.076,1.076,0,0,1,95.464,27.6v-.739a.548.548,0,1,0-1.1,0V27.6a2.181,2.181,0,0,0,2.066,2.18,2.128,2.128,0,0,0,1.131-.274,2.143,2.143,0,0,0,3.39,1.586,2.159,2.159,0,0,0,1.862,1.26,2.125,2.125,0,0,0,1.32-.395,2.142,2.142,0,0,0,2.646,1.133l4.154,4.154a.548.548,0,1,0,.775-.775l-4.006-4.006a2.134,2.134,0,0,0,.522-1.4V22.992l4.187,4.185a.548.548,0,0,0,.775-.775l-1.026-1.026A2.438,2.438,0,0,0,114.125,23ZM95.357,8.231a1.353,1.353,0,0,1,2.288-1.194l2.641,2.641a4.511,4.511,0,0,1,1.041,1.633l1.245,3.414-1.661-.606S95.358,8.239,95.357,8.231Z" transform="translate(-80.611 0)" fill="#0e47a2" stroke="#0e47a2" stroke-width="1"/>
          </g>
        </g>
      </g>
    </g>
  </g>
</svg>
