<svg xmlns="http://www.w3.org/2000/svg" xmlns:xlink="http://www.w3.org/1999/xlink" width="42" height="42" viewBox="0 0 42 42">
  <defs>
    <clipPath id="clip-help-icon-2">
      <rect width="42" height="42"/>
    </clipPath>
  </defs>
  <g id="help-icon-2" clip-path="url(#clip-help-icon-2)">
    <rect width="42" height="42" fill="rgba(255,255,255,0)"/>
    <g id="handshake" transform="translate(0 1.5)">
      <path id="Path_806" data-name="Path 806" d="M37.868,17.417a11.912,11.912,0,0,0-17.2.428A11.872,11.872,0,1,0,3.771,34.5a4.161,4.161,0,0,0,2.338,7.1,4.164,4.164,0,0,0,4.13,4.432,4.158,4.158,0,0,0,5.193,3.728,4.162,4.162,0,0,0,6.944,1.853c1.27-1.262,2.28-2.058,2.344-3.97a4.165,4.165,0,0,0,3.946-4,4.164,4.164,0,0,0,4-4,4.167,4.167,0,0,0,4-4.256l1.206-1.206A11.874,11.874,0,0,0,37.868,17.417ZM5.588,36.427l1.132-1.132a1.5,1.5,0,0,1,2.123,2.123L7.711,38.55a1.5,1.5,0,0,1-2.123-2.123Zm3.157,5.458a1.491,1.491,0,0,1,.44-1.061l1.133-1.133a1.5,1.5,0,0,1,2.122,2.123l-1,1a1.574,1.574,0,0,1-1.195.573A1.508,1.508,0,0,1,8.746,41.885Zm4.57,4.925a1.508,1.508,0,0,1,0-2.123l1-1a1.521,1.521,0,0,1,2.256-.133,1.5,1.5,0,0,1,0,2.123L15.438,46.81a1.5,1.5,0,0,1-2.123,0Zm8.318,1.8L20.5,49.741a1.5,1.5,0,0,1-2.123,0,1.508,1.508,0,0,1,0-2.123l1.132-1.132a1.5,1.5,0,1,1,2.123,2.123Zm11.94-12.04a1.508,1.508,0,0,1-2.123,0l-5.9-5.9-1.874,1.874,5.9,5.9a1.5,1.5,0,0,1-2.123,2.123l-5.8-5.8-.1-.1-1.874,1.874.1.1,5.8,5.8a1.5,1.5,0,1,1-2.123,2.123h0a4.153,4.153,0,0,0-3.941-1.028,4.171,4.171,0,0,0-4-3.068,4.167,4.167,0,0,0-3.6-3.828,4.16,4.16,0,0,0-6.165-3.905A9.229,9.229,0,1,1,18.792,19.72L15.516,23l2.625,2.625a6.009,6.009,0,0,0,7.441.833l7.991,7.991A1.5,1.5,0,0,1,33.574,36.568Zm2.42-4.251-.4.4q-.069-.076-.142-.149L25.687,22.81l-.937.937a3.352,3.352,0,0,1-4.734,0L19.264,23l3.7-3.7c9-8.282,21.306,4.033,13.025,13.025Z" transform="translate(0 -13.955)" fill="#0e47a2"/>
    </g>
  </g>
</svg>
