<svg xmlns="http://www.w3.org/2000/svg" xmlns:xlink="http://www.w3.org/1999/xlink" width="47" height="46" viewBox="0 0 47 46">
  <defs>
    <clipPath id="clip-payment-method-icon-1">
      <rect width="47" height="46"/>
    </clipPath>
  </defs>
  <g id="payment-method-icon-1" clip-path="url(#clip-payment-method-icon-1)">
    <rect width="47" height="46" fill="rgba(255,255,255,0)"/>
    <g id="visa" transform="translate(1 2.311)">
      <path id="Path_634" data-name="Path 634" d="M45.5,108.14a2.69,2.69,0,0,1-2.69,2.69H2.69A2.69,2.69,0,0,1,0,108.14v-26a2.69,2.69,0,0,1,2.69-2.69H42.81a2.69,2.69,0,0,1,2.69,2.69v26Z" transform="translate(0 -79.451)" fill="#fff"/>
      <path id="Path_635" data-name="Path 635" d="M37.89,195.8l-1.068-5.125a1.274,1.274,0,0,0-1.378-.945h-4.9l-.044.234C34.317,190.891,36.841,193.122,37.89,195.8Z" transform="translate(-27.791 -179.932)" fill="#f79f1a"/>
      <g id="Group_230" data-name="Group 230" transform="translate(0 0)">
        <path id="Path_636" data-name="Path 636" d="M188.64,190.892h-3.165l-1.977,11.6h3.16Z" transform="translate(-167.192 -180.989)" fill="#059bbf"/>
        <path id="Path_637" data-name="Path 637" d="M72.013,202.561l4.977-11.58H73.641l-3.1,7.912-.33-1.195a12.376,12.376,0,0,0-4.378-4.808l2.83,9.674Z" transform="translate(-59.985 -181.07)" fill="#059bbf"/>
        <path id="Path_638" data-name="Path 638" d="M250.383,196.665c.012-1.317-.834-2.321-2.656-3.151-1.107-.536-1.782-.893-1.774-1.437,0-.48.572-1,1.81-1a5.837,5.837,0,0,1,2.366.445l.286.131.429-2.513a8.2,8.2,0,0,0-2.834-.484c-3.124,0-5.323,1.572-5.343,3.827-.02,1.667,1.572,2.6,2.771,3.152,1.231.566,1.643.929,1.636,1.437-.008.777-.981,1.131-1.89,1.131a6.634,6.634,0,0,1-2.978-.608l-.4-.186-.444,2.6a9.975,9.975,0,0,0,3.521.616C248.2,200.628,250.359,199.076,250.383,196.665Z" transform="translate(-219.907 -178.954)" fill="#059bbf"/>
        <path id="Path_639" data-name="Path 639" d="M344.37,200.876l4.049,0c.1.4.385,1.739.385,1.739h2.934l-2.561-11.592h-2.441a1.573,1.573,0,0,0-1.655.961l-4.7,10.631h3.323S344.247,201.19,344.37,200.876Zm2.167-5.617c-.016.032.262-.671.421-1.108l.214,1s.6,2.771.73,3.351H345.28C345.542,197.835,346.538,195.259,346.538,195.259Z" transform="translate(-310.136 -181.112)" fill="#059bbf"/>
        <path id="Path_640" data-name="Path 640" d="M42.81,79.451H2.69A2.69,2.69,0,0,0,0,82.141v2.791H45.5V82.141A2.69,2.69,0,0,0,42.81,79.451Z" transform="translate(0 -79.451)" fill="#059bbf"/>
      </g>
      <path id="Path_641" data-name="Path 641" d="M42.81,376.352H2.69A2.69,2.69,0,0,1,0,373.663v-2.792H45.5v2.792A2.69,2.69,0,0,1,42.81,376.352Z" transform="translate(0 -344.973)" fill="#f79f1a"/>
      <path id="Path_642" data-name="Path 642" d="M1.912,108.14v-26a2.69,2.69,0,0,1,2.69-2.69H2.689A2.69,2.69,0,0,0,0,82.141v26a2.69,2.69,0,0,0,2.69,2.69H4.6A2.69,2.69,0,0,1,1.912,108.14Z" transform="translate(0 -79.451)" fill="#202121" opacity="0.15"/>
    </g>
  </g>
</svg>
