<svg xmlns="http://www.w3.org/2000/svg" xmlns:xlink="http://www.w3.org/1999/xlink" width="47" height="46" viewBox="0 0 47 46">
  <defs>
    <clipPath id="clip-payment-method-icon-3">
      <rect width="47" height="46"/>
    </clipPath>
  </defs>
  <g id="payment-method-icon-3" clip-path="url(#clip-payment-method-icon-3)">
    <rect width="47" height="46" fill="rgba(255,255,255,0)"/>
    <g id="discover" transform="translate(1 2.5)">
      <path id="Path_612" data-name="Path 612" d="M45.5,108.14a2.69,2.69,0,0,1-2.69,2.69H2.69A2.69,2.69,0,0,1,0,108.14v-26a2.69,2.69,0,0,1,2.69-2.69H42.81a2.69,2.69,0,0,1,2.69,2.69v26Z" transform="translate(0 -79.451)" fill="#34495e"/>
      <path id="Path_613" data-name="Path 613" d="M1.912,108.14v-26a2.69,2.69,0,0,1,2.69-2.69H2.689A2.69,2.69,0,0,0,0,82.141v26a2.69,2.69,0,0,0,2.69,2.69H4.6A2.69,2.69,0,0,1,1.912,108.14Z" transform="translate(0 -79.451)" fill="#202121" opacity="0.15"/>
      <path id="Path_614" data-name="Path 614" d="M240.873,221.725a3.29,3.29,0,0,0-3.329-3.323h-.012a3.341,3.341,0,1,0,3.342,3.342C240.873,221.736,240.873,221.731,240.873,221.725Z" transform="translate(-213.378 -206.053)" fill="#f26e21"/>
      <g id="Group_227" data-name="Group 227" transform="translate(3.011 12.284)">
        <path id="Path_615" data-name="Path 615" d="M176.9,222.5a2.053,2.053,0,0,1-1.457.706,2.075,2.075,0,0,1-2.1-2.184,2.425,2.425,0,0,1,.629-1.62h0a1.963,1.963,0,0,1,1.363-.565,2.025,2.025,0,0,1,1.542.707v-1.478a3.229,3.229,0,0,0-1.542-.385,3.722,3.722,0,0,0-2.178.907h0a3.5,3.5,0,0,0-1.164,2.5,3.265,3.265,0,0,0,3.342,3.277h.064a3.635,3.635,0,0,0,1.542-.385L176.9,222.5c-.022.022.021.042,0,.062Z" transform="translate(-159.722 -217.677)" fill="#e7e8e3"/>
        <path id="Path_616" data-name="Path 616" d="M310.977,221.23h0l-1.455,3.578-1.671-4.242H306.5l2.635,6.49h.707l2.763-6.49h-1.349Z" transform="translate(-282.275 -220.309)" fill="#e7e8e3"/>
        <path id="Path_617" data-name="Path 617" d="M380.983,223.394v3.47h3.534v-1.029h-2.249V224.1h2.185v-1.093h-2.185v-1.349h2.249v-1.093h-3.534Z" transform="translate(-350.137 -220.309)" fill="#e7e8e3"/>
        <path id="Path_618" data-name="Path 618" d="M35.684,220.566h-1.8v6.3h1.8a3.485,3.485,0,0,0,2.249-.707,3.178,3.178,0,0,0,1.157-2.442A3.11,3.11,0,0,0,35.684,220.566Zm1.478,4.756a2.471,2.471,0,0,1-1.671.514h-.386v-4.177h.321a2.182,2.182,0,0,1,1.671.514,2.053,2.053,0,0,1,.707,1.543A1.921,1.921,0,0,1,37.162,225.322Z" transform="translate(-33.884 -220.309)" fill="#e7e8e3"/>
        <rect id="Rectangle_69" data-name="Rectangle 69" width="1.221" height="6.298" transform="translate(5.784 0.256)" fill="#e7e8e3"/>
        <path id="Path_619" data-name="Path 619" d="M121.059,222.353c-.771-.257-.964-.45-.964-.771a.813.813,0,0,1,.9-.707,1.243,1.243,0,0,1,1.028.514l.643-.835a2.8,2.8,0,0,0-1.864-.707,1.886,1.886,0,0,0-1.992,1.8c0,.9.386,1.285,1.542,1.735a2.5,2.5,0,0,1,.836.386.707.707,0,0,1,.385.642.9.9,0,0,1-.964.9,1.5,1.5,0,0,1-1.35-.835l-.771.771a2.521,2.521,0,0,0,2.185,1.221,2.026,2.026,0,0,0,2.184-2.056C122.858,223.317,122.472,222.867,121.059,222.353Z" transform="translate(-110.969 -219.654)" fill="#e7e8e3"/>
        <path id="Path_620" data-name="Path 620" d="M432.789,224.229a1.7,1.7,0,0,0,1.478-1.8c0-1.157-.836-1.864-2.249-1.864h-1.864v6.3h1.221v-2.506h.193l1.735,2.506h1.478Zm-1.029-.771h-.385V221.53h.385c.771,0,1.221.321,1.221.964S432.532,223.458,431.76,223.458Z" transform="translate(-394.939 -220.309)" fill="#e7e8e3"/>
      </g>
    </g>
  </g>
</svg>
