<svg xmlns="http://www.w3.org/2000/svg" xmlns:xlink="http://www.w3.org/1999/xlink" width="30.029" height="33.03" viewBox="0 0 30.029 33.03">
  <defs>
    <clipPath id="clip-sign-up-user">
      <rect width="30.03" height="33.03"/>
    </clipPath>
  </defs>
  <g id="sign-up-user" clip-path="url(#clip-sign-up-user)">
    <rect width="30.03" height="33.03" fill="rgba(255,255,255,0)"/>
    <g id="Group_221" data-name="Group 221" transform="translate(3 2)">
      <g id="_07-profile_2_" data-name="07-profile (2)" transform="translate(0)">
        <path id="Path_601" data-name="Path 601" d="M101.02,6.992a6.766,6.766,0,0,1-2.048,4.944,6.766,6.766,0,0,1-4.944,2.048h0a6.767,6.767,0,0,1-4.94-2.048,6.765,6.765,0,0,1-2.048-4.944,6.765,6.765,0,0,1,2.048-4.943A6.764,6.764,0,0,1,94.024,0h0a6.768,6.768,0,0,1,4.944,2.048,6.765,6.765,0,0,1,2.048,4.943Zm0,0" transform="translate(-82.1 0)" fill="#ffbb85"/>
        <path id="Path_602" data-name="Path 602" d="M24.221,257.335a4.819,4.819,0,0,1-1.432,3.647,5.154,5.154,0,0,1-3.689,1.346H5.121a5.151,5.151,0,0,1-3.689-1.346A4.819,4.819,0,0,1,0,257.335c0-.583.019-1.16.058-1.714a17.162,17.162,0,0,1,.235-1.835,14.481,14.481,0,0,1,.451-1.844,9.145,9.145,0,0,1,.758-1.72,6.511,6.511,0,0,1,1.143-1.49A5.042,5.042,0,0,1,4.288,247.7a5.678,5.678,0,0,1,2.1-.379,2.125,2.125,0,0,1,1.136.481c.346.226.745.483,1.185.764a6.763,6.763,0,0,0,1.531.675,6.1,6.1,0,0,0,1.688.3q.093,0,.185,0a6.09,6.09,0,0,0,1.874-.3,6.762,6.762,0,0,0,1.532-.675c.445-.284.843-.541,1.184-.763a2.122,2.122,0,0,1,1.136-.482,5.681,5.681,0,0,1,2.1.379,5.046,5.046,0,0,1,1.642,1.032,6.488,6.488,0,0,1,1.143,1.49,9.113,9.113,0,0,1,.758,1.72,14.468,14.468,0,0,1,.451,1.845,17.326,17.326,0,0,1,.235,1.834c.039.553.058,1.13.059,1.715Zm0,0" transform="translate(0 -233.297)" fill="#6aa9ff"/>
        <path id="Path_603" data-name="Path 603" d="M210.3,13.984h0V0h0a6.768,6.768,0,0,1,4.944,2.048,6.765,6.765,0,0,1,2.048,4.943,6.766,6.766,0,0,1-2.048,4.944,6.766,6.766,0,0,1-4.944,2.048Zm0,0" transform="translate(-198.37)" fill="#f5a86c"/>
        <path id="Path_604" data-name="Path 604" d="M222.59,257.335a4.82,4.82,0,0,1-1.432,3.647,5.154,5.154,0,0,1-3.689,1.346h-7.175V249.54q.093,0,.185,0a6.09,6.09,0,0,0,1.874-.3,6.763,6.763,0,0,0,1.532-.675c.445-.284.843-.541,1.184-.763a2.123,2.123,0,0,1,1.136-.482,5.682,5.682,0,0,1,2.1.379,5.046,5.046,0,0,1,1.642,1.032,6.489,6.489,0,0,1,1.143,1.49,9.112,9.112,0,0,1,.758,1.72,14.464,14.464,0,0,1,.451,1.845,17.317,17.317,0,0,1,.235,1.834C222.57,256.173,222.589,256.75,222.59,257.335Zm0,0" transform="translate(-198.369 -233.297)" fill="#2682ff"/>
      </g>
    </g>
  </g>
</svg>
