<svg xmlns="http://www.w3.org/2000/svg" xmlns:xlink="http://www.w3.org/1999/xlink" width="48.029" height="49.03" viewBox="0 0 48.029 49.03">
  <defs>
    <clipPath id="clip-user-icon-2">
      <rect width="48.03" height="49.03"/>
    </clipPath>
  </defs>
  <g id="user-icon-2" clip-path="url(#clip-user-icon-2)">
    <rect width="48.03" height="49.03" fill="rgba(255,255,255,0)"/>
    <g id="Group_218" data-name="Group 218" transform="translate(5 1.266)">
      <g id="_07-profile_2_" data-name="07-profile (2)" transform="translate(0)">
        <path id="Path_601" data-name="Path 601" d="M109.69,11.327a10.961,10.961,0,0,1-3.318,8.009,10.961,10.961,0,0,1-8.009,3.318h-.005a10.963,10.963,0,0,1-8-3.318,10.96,10.96,0,0,1-3.318-8.009,10.959,10.959,0,0,1,3.318-8.008,10.958,10.958,0,0,1,8-3.318h.005a10.964,10.964,0,0,1,8.009,3.318,10.96,10.96,0,0,1,3.318,8.008Zm0,0" transform="translate(-79.041 0)" fill="#ffbb85"/>
        <path id="Path_602" data-name="Path 602" d="M39.238,263.544a7.808,7.808,0,0,1-2.32,5.908,8.349,8.349,0,0,1-5.977,2.18H8.3a8.345,8.345,0,0,1-5.976-2.18A7.806,7.806,0,0,1,0,263.544c0-.944.031-1.879.094-2.777a27.8,27.8,0,0,1,.381-2.973,23.459,23.459,0,0,1,.73-2.987,14.815,14.815,0,0,1,1.228-2.787,10.549,10.549,0,0,1,1.851-2.414,8.168,8.168,0,0,1,2.661-1.672,9.2,9.2,0,0,1,3.4-.614,3.442,3.442,0,0,1,1.84.78c.56.366,1.206.782,1.919,1.238a10.956,10.956,0,0,0,2.48,1.093,9.889,9.889,0,0,0,2.734.485q.15.005.3.005a9.866,9.866,0,0,0,3.036-.49,10.956,10.956,0,0,0,2.481-1.093c.72-.46,1.366-.876,1.919-1.236a3.438,3.438,0,0,1,1.841-.781,9.2,9.2,0,0,1,3.4.614,8.175,8.175,0,0,1,2.661,1.672A10.511,10.511,0,0,1,36.8,252.02a14.765,14.765,0,0,1,1.228,2.786,23.439,23.439,0,0,1,.731,2.989,28.068,28.068,0,0,1,.38,2.971c.064.9.095,1.83.1,2.778Zm0,0" transform="translate(0 -224.602)" fill="#6aa9ff"/>
        <path id="Path_603" data-name="Path 603" d="M210.3,22.654h-.005V0h.005a10.964,10.964,0,0,1,8.009,3.318,10.96,10.96,0,0,1,3.318,8.008,10.962,10.962,0,0,1-3.318,8.009,10.961,10.961,0,0,1-8.009,3.318Zm0,0" transform="translate(-190.977)" fill="#f5a86c"/>
        <path id="Path_604" data-name="Path 604" d="M230.214,263.544a7.808,7.808,0,0,1-2.32,5.908,8.349,8.349,0,0,1-5.977,2.18H210.293V250.916q.15.005.3.005a9.866,9.866,0,0,0,3.036-.491,10.957,10.957,0,0,0,2.481-1.093c.72-.46,1.366-.876,1.919-1.236a3.438,3.438,0,0,1,1.841-.781,9.2,9.2,0,0,1,3.4.614,8.175,8.175,0,0,1,2.661,1.672,10.511,10.511,0,0,1,1.852,2.414,14.763,14.763,0,0,1,1.228,2.786,23.435,23.435,0,0,1,.731,2.989,28.062,28.062,0,0,1,.38,2.971c.064.9.095,1.83.1,2.778Zm0,0" transform="translate(-190.976 -224.602)" fill="#2682ff"/>
      </g>
    </g>
  </g>
</svg>
